<?xml version="1.0" encoding="UTF-8" standalone="no"?>
<svg
   xmlns:dc="http://purl.org/dc/elements/1.1/"
   xmlns:cc="http://creativecommons.org/ns#"
   xmlns:rdf="http://www.w3.org/1999/02/22-rdf-syntax-ns#"
   xmlns:svg="http://www.w3.org/2000/svg"
   xmlns="http://www.w3.org/2000/svg"
   xmlns:sodipodi="http://sodipodi.sourceforge.net/DTD/sodipodi-0.dtd"
   xmlns:inkscape="http://www.inkscape.org/namespaces/inkscape"
   version="1.1"
   id="Layer_2"
   x="0px"
   y="0px"
   width="240"
   height="240"
   viewBox="0 0 240 240.00001"
   enable-background="new 0 0 400.667 400.666"
   xml:space="preserve"
   inkscape:version="0.91 r13725"
   sodipodi:docname="adi_case.svg"><metadata
     id="metadata44"><rdf:RDF><cc:Work
         rdf:about=""><dc:format>image/svg+xml</dc:format><dc:type
           rdf:resource="http://purl.org/dc/dcmitype/StillImage" /><dc:title /></cc:Work></rdf:RDF></metadata><defs
     id="defs42" /><sodipodi:namedview
     pagecolor="#ffffff"
     bordercolor="#666666"
     borderopacity="1"
     objecttolerance="10"
     gridtolerance="10"
     guidetolerance="10"
     inkscape:pageopacity="0"
     inkscape:pageshadow="2"
     inkscape:window-width="1839"
     inkscape:window-height="1050"
     id="namedview40"
     showgrid="false"
     inkscape:zoom="2.6221876"
     inkscape:cx="110.65175"
     inkscape:cy="167.16002"
     inkscape:window-x="81"
     inkscape:window-y="30"
     inkscape:window-maximized="1"
     inkscape:current-layer="Layer_2" /><filter
     filterUnits="objectBoundingBox"
     id="AI_Shadow_1"><feGaussianBlur
       stdDeviation="5"
       result="blur"
       in="SourceAlpha"
       id="feGaussianBlur4" /><feOffset
       dy="0"
       dx="0"
       result="offsetBlurredAlpha"
       in="blur"
       id="feOffset6" /><feMerge
       id="feMerge8"><feMergeNode
         in="offsetBlurredAlpha"
         id="feMergeNode10" /><feMergeNode
         in="SourceGraphic"
         id="feMergeNode12" /></feMerge></filter><line
     stroke-miterlimit="10"
     x1="70.098305"
     y1="120.53812"
     x2="102.58134"
     y2="120.53812"
     id="line14"
     style="fill:none;stroke:#ff7f00;stroke-width:3.52259731;stroke-linecap:round;stroke-miterlimit:10" /><line
     stroke-miterlimit="10"
     x1="137.18279"
     y1="120.53812"
     x2="169.66583"
     y2="120.53812"
     id="line16"
     style="fill:none;stroke:#ff7f00;stroke-width:3.52259731;stroke-linecap:round;stroke-miterlimit:10" /><line
     stroke-miterlimit="10"
     x1="119.9061"
     y1="120.53812"
     x2="119.9061"
     y2="120.53812"
     id="line18"
     style="fill:none;stroke:#ff7f00;stroke-width:3.52259731;stroke-linecap:round;stroke-miterlimit:10" /><line
     stroke-miterlimit="10"
     x1="119.81075"
     y1="56.329601"
     x2="112.80854"
     y2="75.424332"
     id="line20"
     style="fill:none;stroke:#ff7f00;stroke-width:3.52259731;stroke-linecap:round;stroke-miterlimit:10" /><line
     stroke-miterlimit="10"
     x1="112.80854"
     y1="75.424332"
     x2="126.81367"
     y2="75.424332"
     id="line22"
     style="fill:none;stroke:#ff7f00;stroke-width:3.52259731;stroke-linecap:round;stroke-miterlimit:10" /><line
     stroke-miterlimit="10"
     x1="126.81367"
     y1="75.424332"
     x2="119.81075"
     y2="56.329601"
     id="line24"
     style="fill:none;stroke:#ff7f00;stroke-width:3.52259731;stroke-linecap:round;stroke-miterlimit:10" /><g
     id="g26"
     style="filter:url(#AI_Shadow_1)"
     transform="matrix(0.70615255,0,0,0.70289104,-21.701522,-22.361279)"><path
       d="m 82.663,298.167 c 28.157,33.81 70.564,55.333 118.004,55.333 47.44,0 89.847,-21.524 118.004,-55.333 l -236.008,0 z"
       id="path28"
       inkscape:connector-curvature="0"
       style="fill:#232323" /><path
       stroke-miterlimit="10"
       d="m 82.663,298.167 c 28.157,33.81 70.564,55.333 118.004,55.333 47.44,0 89.847,-21.524 118.004,-55.333 l -236.008,0 z"
       id="path30"
       inkscape:connector-curvature="0"
       style="fill:none;stroke:#353535;stroke-width:1.29999995;stroke-miterlimit:10" /></g><line
     stroke-miterlimit="10"
     x1="120.00002"
     y1="187.56909"
     x2="120.00002"
     y2="209.00725"
     id="line32"
     style="fill:none;stroke:#ffffff;stroke-width:2.81807828;stroke-miterlimit:10" /><line
     stroke-miterlimit="10"
     x1="158.13223"
     y1="187.56909"
     x2="158.13223"
     y2="194.77373"
     id="line34"
     style="fill:none;stroke:#ffffff;stroke-width:2.81807828;stroke-miterlimit:10" /><line
     stroke-miterlimit="10"
     x1="81.867775"
     y1="187.56909"
     x2="81.867775"
     y2="194.77373"
     id="line36"
     style="fill:none;stroke:#ffffff;stroke-width:2.81807828;stroke-miterlimit:10" /><g
     id="g38"
     style="filter:url(#AI_Shadow_1)"
     transform="matrix(0.70660452,0,0,0.70288477,20.786438,-12.282594)" /><g
     style="filter:url(#AI_Shadow_1-6)"
     id="g4439"
     transform="matrix(0.65809062,0,0,0.65809274,-11.837269,-11.618578)"><path
       id="path4441"
       d="m 200.333,33.5 c -91.956,0 -166.5,74.544 -166.5,166.5 0,91.956 74.544,166.5 166.5,166.5 91.957,0 166.5,-74.544 166.5,-166.5 0,-91.956 -74.543,-166.5 -166.5,-166.5 z m 0.334,316.599 C 117.953,350.099 50.9,283.046 50.9,200.332 c 0,-82.713 67.053,-149.767 149.767,-149.767 82.714,0 149.767,67.053 149.767,149.767 -0.001,82.714 -67.054,149.767 -149.767,149.767 z"
       inkscape:connector-curvature="0"
       style="fill:#232323" /><path
       id="path4443"
       d="m 200.333,33.5 c -91.956,0 -166.5,74.544 -166.5,166.5 0,91.956 74.544,166.5 166.5,166.5 91.957,0 166.5,-74.544 166.5,-166.5 0,-91.956 -74.543,-166.5 -166.5,-166.5 z m 0.334,316.599 C 117.953,350.099 50.9,283.046 50.9,200.332 c 0,-82.713 67.053,-149.767 149.767,-149.767 82.714,0 149.767,67.053 149.767,149.767 -0.001,82.714 -67.054,149.767 -149.767,149.767 z"
       stroke-miterlimit="10"
       inkscape:connector-curvature="0"
       style="fill:none;stroke:#353535;stroke-width:1.29999995;stroke-miterlimit:10" /></g></svg>