<?xml version="1.0" encoding="UTF-8" standalone="no"?>
<svg
   xmlns:dc="http://purl.org/dc/elements/1.1/"
   xmlns:cc="http://creativecommons.org/ns#"
   xmlns:rdf="http://www.w3.org/1999/02/22-rdf-syntax-ns#"
   xmlns:svg="http://www.w3.org/2000/svg"
   xmlns="http://www.w3.org/2000/svg"
   xmlns:sodipodi="http://sodipodi.sourceforge.net/DTD/sodipodi-0.dtd"
   xmlns:inkscape="http://www.inkscape.org/namespaces/inkscape"
   version="1.1"
   x="0px"
   y="0px"
   width="240"
   height="240"
   viewBox="0 0 240 240.00001"
   enable-background="new 0 0 400.667 400.666"
   xml:space="preserve"
   id="svg2"
   inkscape:version="0.91 r13725"
   sodipodi:docname="adi_face.svg"><metadata
     id="metadata98"><rdf:RDF><cc:Work
         rdf:about=""><dc:format>image/svg+xml</dc:format><dc:type
           rdf:resource="http://purl.org/dc/dcmitype/StillImage" /><dc:title></dc:title></cc:Work></rdf:RDF></metadata><defs
     id="defs96" /><sodipodi:namedview
     pagecolor="#ffffff"
     bordercolor="#666666"
     borderopacity="1"
     objecttolerance="10"
     gridtolerance="10"
     guidetolerance="10"
     inkscape:pageopacity="0"
     inkscape:pageshadow="2"
     inkscape:window-width="1839"
     inkscape:window-height="1050"
     id="namedview94"
     showgrid="false"
     inkscape:zoom="3.3319964"
     inkscape:cx="112.48355"
     inkscape:cy="135.84282"
     inkscape:window-x="81"
     inkscape:window-y="30"
     inkscape:window-maximized="1"
     inkscape:current-layer="svg2" /><filter
     filterUnits="objectBoundingBox"
     id="AI_Shadow_1"><feGaussianBlur
       stdDeviation="5"
       result="blur"
       in="SourceAlpha"
       id="feGaussianBlur5" /><feOffset
       dy="0"
       dx="0"
       result="offsetBlurredAlpha"
       in="blur"
       id="feOffset7" /><feMerge
       id="feMerge9"><feMergeNode
         in="offsetBlurredAlpha"
         id="feMergeNode11" /><feMergeNode
         in="SourceGraphic"
         id="feMergeNode13" /></feMerge></filter><g
     id="g15"
     style="filter:url(#AI_Shadow_1)"
     transform="matrix(0.63537248,0,0,0.6068144,-7.3026529,-1.5759145)"><linearGradient
       id="SVGID_1_"
       gradientUnits="userSpaceOnUse"
       x1="200.33299"
       y1="276.33249"
       x2="200.33299"
       y2="124.3325"><stop
         offset="0"
         style="stop-color:#3D2618"
         id="stop18" /><stop
         offset="0.4999"
         style="stop-color:#503723"
         id="stop20" /><stop
         offset="0.5001"
         style="stop-color:#9CCBE5"
         id="stop22" /><stop
         offset="1"
         style="stop-color:#558EBB"
         id="stop24" /></linearGradient><path
       d="m 301.333,200.333 c 0,41.936 -33.963,75.938 -75.885,76 -0.038,0 -50.076,0 -50.114,0 -41.974,0 -76,-34.026 -76,-76 0,-41.974 34.026,-76 76,-76 0.027,0 50.056,0 50.083,0 41.935,0.044 75.916,34.054 75.916,76 z"
       id="path26"
       inkscape:connector-curvature="0"
       style="fill:url(#SVGID_1_)" /></g><line
     stroke-miterlimit="10"
     x1="55.09901"
     y1="123.4108"
     x2="183.96545"
     y2="123.4108"
     id="line28"
     style="fill:none;stroke:#ffffff;stroke-width:1.20226908;stroke-miterlimit:10" /><line
     stroke-miterlimit="10"
     x1="111.4379"
     y1="116.00004"
     x2="127.3867"
     y2="116.00004"
     id="line30"
     style="fill:none;stroke:#ffffff;stroke-width:1.20226908;stroke-miterlimit:10" /><line
     stroke-miterlimit="10"
     x1="111.55783"
     y1="130.79831"
     x2="127.50664"
     y2="130.79831"
     id="line32"
     style="fill:none;stroke:#ffffff;stroke-width:1.20226908;stroke-miterlimit:10" /><line
     stroke-miterlimit="10"
     x1="111.46788"
     y1="146.61392"
     x2="127.4167"
     y2="146.61392"
     id="line34"
     style="fill:none;stroke:#ffffff;stroke-width:1.20226908;stroke-miterlimit:10" /><line
     stroke-miterlimit="10"
     x1="111.55783"
     y1="100.13968"
     x2="127.50664"
     y2="100.13968"
     id="line36"
     style="fill:none;stroke:#ffffff;stroke-width:1.20226908;stroke-miterlimit:10" /><line
     stroke-miterlimit="10"
     x1="106.37447"
     y1="108.08743"
     x2="131.89258"
     y2="108.08743"
     id="line38"
     style="fill:none;stroke:#ffffff;stroke-width:1.20226908;stroke-miterlimit:10" /><line
     stroke-miterlimit="10"
     x1="106.37447"
     y1="138.72849"
     x2="131.89258"
     y2="138.72849"
     id="line40"
     style="fill:none;stroke:#ffffff;stroke-width:1.20226908;stroke-miterlimit:10" /><line
     stroke-miterlimit="10"
     x1="99.994949"
     y1="154.49426"
     x2="138.27209"
     y2="154.49426"
     id="line42"
     style="fill:none;stroke:#ffffff;stroke-width:1.20226908;stroke-miterlimit:10" /><line
     stroke-miterlimit="10"
     x1="99.994949"
     y1="92.186279"
     x2="138.27209"
     y2="92.186279"
     id="line44"
     style="fill:none;stroke:#ffffff;stroke-width:1.20226908;stroke-miterlimit:10" /><g
     id="g46"
     transform="matrix(0.63795265,0,0,0.56644135,-8.4838141,9.863659)"><path
       d="m 166.644,169.224 2.25,0 0,7.901 -1.493,0 0,-6.488 -1.627,0 0.87,-1.413 z"
       id="path48"
       inkscape:connector-curvature="0"
       style="fill:#ffffff" /><path
       d="m 172.84,169.025 c 0.577,0 1.073,0.142 1.491,0.424 0.417,0.283 0.739,0.715 0.967,1.297 0.227,0.582 0.341,1.392 0.341,2.43 0,1.049 -0.115,1.866 -0.347,2.449 -0.23,0.583 -0.542,1.012 -0.932,1.287 -0.39,0.273 -0.883,0.411 -1.477,0.411 -0.594,0 -1.094,-0.138 -1.499,-0.414 -0.405,-0.276 -0.722,-0.695 -0.951,-1.257 -0.229,-0.562 -0.344,-1.362 -0.344,-2.401 0,-1.45 0.224,-2.501 0.671,-3.153 0.499,-0.715 1.192,-1.073 2.08,-1.073 z m 0.035,1.429 c -0.253,0 -0.479,0.082 -0.675,0.244 -0.196,0.163 -0.347,0.443 -0.45,0.841 -0.103,0.398 -0.155,0.979 -0.155,1.746 0,0.999 0.119,1.689 0.356,2.071 0.238,0.381 0.546,0.572 0.924,0.572 0.365,0 0.654,-0.181 0.869,-0.542 0.261,-0.437 0.391,-1.167 0.391,-2.191 0,-1.039 -0.117,-1.754 -0.351,-2.148 -0.234,-0.394 -0.537,-0.593 -0.909,-0.593 z"
       id="path50"
       inkscape:connector-curvature="0"
       style="fill:#ffffff" /></g><g
     id="g52"
     transform="matrix(0.63795265,0,0,0.56644135,-8.4838141,9.863659)"><path
       d="m 155.584,143.883 -1.466,0 c 0.04,-0.852 0.307,-1.523 0.803,-2.011 0.496,-0.489 1.133,-0.733 1.91,-0.733 0.48,0 0.903,0.101 1.27,0.304 0.367,0.202 0.661,0.494 0.881,0.875 0.221,0.382 0.331,0.769 0.331,1.163 0,0.469 -0.133,0.974 -0.4,1.515 -0.267,0.541 -0.755,1.18 -1.464,1.917 l -0.887,0.935 2.816,0 0,1.391 -5.473,0 0,-0.72 2.444,-2.492 c 0.591,-0.598 0.984,-1.079 1.179,-1.442 0.195,-0.363 0.292,-0.692 0.292,-0.985 0,-0.304 -0.101,-0.556 -0.303,-0.755 -0.203,-0.198 -0.463,-0.298 -0.782,-0.298 -0.322,0 -0.591,0.12 -0.806,0.36 -0.215,0.24 -0.33,0.564 -0.345,0.976 z"
       id="path54"
       inkscape:connector-curvature="0"
       style="fill:#ffffff" /><path
       d="m 162.884,141.138 c 0.577,0 1.073,0.142 1.491,0.424 0.417,0.283 0.739,0.715 0.967,1.297 0.227,0.582 0.341,1.392 0.341,2.43 0,1.049 -0.115,1.866 -0.347,2.449 -0.23,0.583 -0.542,1.012 -0.932,1.287 -0.39,0.273 -0.883,0.411 -1.477,0.411 -0.594,0 -1.094,-0.138 -1.499,-0.414 -0.405,-0.276 -0.722,-0.695 -0.951,-1.257 -0.229,-0.562 -0.344,-1.362 -0.344,-2.401 0,-1.45 0.224,-2.501 0.671,-3.153 0.499,-0.715 1.192,-1.073 2.08,-1.073 z m 0.034,1.429 c -0.253,0 -0.479,0.082 -0.675,0.244 -0.196,0.163 -0.347,0.443 -0.45,0.841 -0.103,0.398 -0.155,0.979 -0.155,1.746 0,0.999 0.119,1.689 0.356,2.071 0.238,0.381 0.546,0.572 0.924,0.572 0.365,0 0.654,-0.181 0.869,-0.542 0.261,-0.437 0.391,-1.167 0.391,-2.191 0,-1.039 -0.117,-1.754 -0.351,-2.148 -0.234,-0.394 -0.536,-0.593 -0.909,-0.593 z"
       id="path56"
       inkscape:connector-curvature="0"
       style="fill:#ffffff" /></g><g
     id="g58"
     transform="matrix(0.63795265,0,0,0.56644135,-8.4838141,9.863659)"><path
       d="m 234.958,143.784 -1.466,0 c 0.04,-0.852 0.307,-1.523 0.803,-2.011 0.496,-0.489 1.133,-0.733 1.91,-0.733 0.48,0 0.903,0.101 1.27,0.304 0.367,0.202 0.661,0.494 0.881,0.875 0.221,0.382 0.331,0.769 0.331,1.163 0,0.469 -0.133,0.974 -0.4,1.515 -0.267,0.541 -0.755,1.18 -1.464,1.917 l -0.887,0.935 2.816,0 0,1.391 -5.473,0 0,-0.72 2.444,-2.492 c 0.591,-0.598 0.984,-1.079 1.179,-1.442 0.195,-0.363 0.292,-0.692 0.292,-0.985 0,-0.304 -0.101,-0.556 -0.303,-0.755 -0.203,-0.198 -0.463,-0.298 -0.782,-0.298 -0.322,0 -0.591,0.12 -0.806,0.36 -0.215,0.24 -0.33,0.564 -0.345,0.976 z"
       id="path60"
       inkscape:connector-curvature="0"
       style="fill:#ffffff" /><path
       d="m 242.258,141.039 c 0.577,0 1.073,0.142 1.491,0.424 0.417,0.283 0.739,0.715 0.967,1.297 0.227,0.582 0.341,1.392 0.341,2.43 0,1.049 -0.115,1.866 -0.347,2.449 -0.23,0.583 -0.542,1.012 -0.932,1.287 -0.39,0.273 -0.883,0.411 -1.477,0.411 -0.594,0 -1.094,-0.138 -1.499,-0.414 -0.405,-0.276 -0.722,-0.695 -0.951,-1.257 -0.229,-0.562 -0.344,-1.362 -0.344,-2.401 0,-1.45 0.224,-2.501 0.671,-3.153 0.499,-0.715 1.192,-1.073 2.08,-1.073 z m 0.034,1.429 c -0.253,0 -0.479,0.082 -0.675,0.244 -0.196,0.163 -0.347,0.443 -0.45,0.841 -0.103,0.398 -0.155,0.979 -0.155,1.746 0,0.999 0.119,1.689 0.356,2.071 0.238,0.381 0.546,0.572 0.924,0.572 0.365,0 0.654,-0.181 0.869,-0.542 0.261,-0.437 0.391,-1.167 0.391,-2.191 0,-1.039 -0.117,-1.754 -0.351,-2.148 -0.234,-0.394 -0.536,-0.593 -0.909,-0.593 z"
       id="path62"
       inkscape:connector-curvature="0"
       style="fill:#ffffff" /></g><g
     id="g64"
     transform="matrix(0.63795265,0,0,0.56644135,-8.4838141,9.863659)"><path
       d="m 224.341,169.224 2.25,0 0,7.901 -1.493,0 0,-6.488 -1.627,0 0.87,-1.413 z"
       id="path66"
       inkscape:connector-curvature="0"
       style="fill:#ffffff" /><path
       d="m 230.538,169.025 c 0.577,0 1.073,0.142 1.491,0.424 0.417,0.283 0.739,0.715 0.967,1.297 0.227,0.582 0.341,1.392 0.341,2.43 0,1.049 -0.115,1.866 -0.347,2.449 -0.23,0.583 -0.542,1.012 -0.932,1.287 -0.39,0.273 -0.883,0.411 -1.477,0.411 -0.594,0 -1.094,-0.138 -1.499,-0.414 -0.405,-0.276 -0.722,-0.695 -0.951,-1.257 -0.229,-0.562 -0.344,-1.362 -0.344,-2.401 0,-1.45 0.224,-2.501 0.671,-3.153 0.499,-0.715 1.191,-1.073 2.08,-1.073 z m 0.034,1.429 c -0.253,0 -0.479,0.082 -0.675,0.244 -0.196,0.163 -0.347,0.443 -0.45,0.841 -0.103,0.398 -0.155,0.979 -0.155,1.746 0,0.999 0.119,1.689 0.356,2.071 0.238,0.381 0.546,0.572 0.924,0.572 0.365,0 0.654,-0.181 0.869,-0.542 0.261,-0.437 0.391,-1.167 0.391,-2.191 0,-1.039 -0.117,-1.754 -0.351,-2.148 -0.234,-0.394 -0.537,-0.593 -0.909,-0.593 z"
       id="path68"
       inkscape:connector-curvature="0"
       style="fill:#ffffff" /></g><g
     id="g70"
     transform="matrix(0.63795265,0,0,0.56644135,-8.4838141,9.863659)"><path
       d="m 166.644,223.224 2.25,0 0,7.901 -1.493,0 0,-6.488 -1.627,0 0.87,-1.413 z"
       id="path72"
       inkscape:connector-curvature="0"
       style="fill:#ffffff" /><path
       d="m 172.84,223.025 c 0.577,0 1.073,0.142 1.491,0.424 0.417,0.283 0.739,0.715 0.967,1.297 0.227,0.582 0.341,1.392 0.341,2.43 0,1.049 -0.115,1.866 -0.347,2.449 -0.23,0.583 -0.542,1.012 -0.932,1.287 -0.39,0.273 -0.883,0.411 -1.477,0.411 -0.594,0 -1.094,-0.138 -1.499,-0.414 -0.405,-0.276 -0.722,-0.695 -0.951,-1.257 -0.229,-0.562 -0.344,-1.362 -0.344,-2.401 0,-1.45 0.224,-2.501 0.671,-3.153 0.499,-0.715 1.192,-1.073 2.08,-1.073 z m 0.035,1.429 c -0.253,0 -0.479,0.082 -0.675,0.244 -0.196,0.163 -0.347,0.443 -0.45,0.841 -0.103,0.398 -0.155,0.979 -0.155,1.746 0,0.999 0.119,1.689 0.356,2.071 0.238,0.381 0.546,0.572 0.924,0.572 0.365,0 0.654,-0.181 0.869,-0.542 0.261,-0.437 0.391,-1.167 0.391,-2.191 0,-1.039 -0.117,-1.754 -0.351,-2.148 -0.234,-0.394 -0.537,-0.593 -0.909,-0.593 z"
       id="path74"
       inkscape:connector-curvature="0"
       style="fill:#ffffff" /></g><g
     id="g76"
     transform="matrix(0.63795265,0,0,0.56644135,-8.4838141,9.863659)"><path
       d="m 224.341,223.224 2.25,0 0,7.901 -1.493,0 0,-6.488 -1.627,0 0.87,-1.413 z"
       id="path78"
       inkscape:connector-curvature="0"
       style="fill:#ffffff" /><path
       d="m 230.538,223.025 c 0.577,0 1.073,0.142 1.491,0.424 0.417,0.283 0.739,0.715 0.967,1.297 0.227,0.582 0.341,1.392 0.341,2.43 0,1.049 -0.115,1.866 -0.347,2.449 -0.23,0.583 -0.542,1.012 -0.932,1.287 -0.39,0.273 -0.883,0.411 -1.477,0.411 -0.594,0 -1.094,-0.138 -1.499,-0.414 -0.405,-0.276 -0.722,-0.695 -0.951,-1.257 -0.229,-0.562 -0.344,-1.362 -0.344,-2.401 0,-1.45 0.224,-2.501 0.671,-3.153 0.499,-0.715 1.191,-1.073 2.08,-1.073 z m 0.034,1.429 c -0.253,0 -0.479,0.082 -0.675,0.244 -0.196,0.163 -0.347,0.443 -0.45,0.841 -0.103,0.398 -0.155,0.979 -0.155,1.746 0,0.999 0.119,1.689 0.356,2.071 0.238,0.381 0.546,0.572 0.924,0.572 0.365,0 0.654,-0.181 0.869,-0.542 0.261,-0.437 0.391,-1.167 0.391,-2.191 0,-1.039 -0.117,-1.754 -0.351,-2.148 -0.234,-0.394 -0.537,-0.593 -0.909,-0.593 z"
       id="path80"
       inkscape:connector-curvature="0"
       style="fill:#ffffff" /></g><g
     id="g82"
     transform="matrix(0.63795265,0,0,0.56644135,-8.4838141,9.863659)"><path
       d="m 155.584,253.883 -1.466,0 c 0.04,-0.852 0.307,-1.523 0.803,-2.011 0.496,-0.489 1.133,-0.733 1.91,-0.733 0.48,0 0.903,0.101 1.27,0.304 0.367,0.202 0.661,0.494 0.881,0.875 0.221,0.382 0.331,0.769 0.331,1.163 0,0.469 -0.133,0.974 -0.4,1.515 -0.267,0.541 -0.755,1.18 -1.464,1.917 l -0.887,0.935 2.816,0 0,1.391 -5.473,0 0,-0.72 2.444,-2.492 c 0.591,-0.598 0.984,-1.079 1.179,-1.442 0.195,-0.363 0.292,-0.692 0.292,-0.985 0,-0.304 -0.101,-0.556 -0.303,-0.755 -0.203,-0.198 -0.463,-0.298 -0.782,-0.298 -0.322,0 -0.591,0.12 -0.806,0.36 -0.215,0.24 -0.33,0.564 -0.345,0.976 z"
       id="path84"
       inkscape:connector-curvature="0"
       style="fill:#ffffff" /><path
       d="m 162.884,251.138 c 0.577,0 1.073,0.142 1.491,0.424 0.417,0.283 0.739,0.715 0.967,1.297 0.227,0.582 0.341,1.392 0.341,2.43 0,1.049 -0.115,1.866 -0.347,2.449 -0.23,0.583 -0.542,1.012 -0.932,1.287 -0.39,0.273 -0.883,0.411 -1.477,0.411 -0.594,0 -1.094,-0.138 -1.499,-0.414 -0.405,-0.276 -0.722,-0.695 -0.951,-1.257 -0.229,-0.562 -0.344,-1.362 -0.344,-2.401 0,-1.45 0.224,-2.501 0.671,-3.153 0.499,-0.715 1.192,-1.073 2.08,-1.073 z m 0.034,1.429 c -0.253,0 -0.479,0.082 -0.675,0.244 -0.196,0.163 -0.347,0.443 -0.45,0.841 -0.103,0.398 -0.155,0.979 -0.155,1.746 0,0.999 0.119,1.689 0.356,2.071 0.238,0.381 0.546,0.572 0.924,0.572 0.365,0 0.654,-0.181 0.869,-0.542 0.261,-0.437 0.391,-1.167 0.391,-2.191 0,-1.039 -0.117,-1.754 -0.351,-2.148 -0.234,-0.394 -0.536,-0.593 -0.909,-0.593 z"
       id="path86"
       inkscape:connector-curvature="0"
       style="fill:#ffffff" /></g><g
     id="g88"
     transform="matrix(0.63795265,0,0,0.56644135,-8.4838141,9.863659)"><path
       d="m 234.958,253.784 -1.466,0 c 0.04,-0.852 0.307,-1.523 0.803,-2.011 0.496,-0.489 1.133,-0.733 1.91,-0.733 0.48,0 0.903,0.101 1.27,0.304 0.367,0.202 0.661,0.494 0.881,0.875 0.221,0.382 0.331,0.769 0.331,1.163 0,0.469 -0.133,0.974 -0.4,1.515 -0.267,0.541 -0.755,1.18 -1.464,1.917 l -0.887,0.935 2.816,0 0,1.391 -5.473,0 0,-0.72 2.444,-2.492 c 0.591,-0.598 0.984,-1.079 1.179,-1.442 0.195,-0.363 0.292,-0.692 0.292,-0.985 0,-0.304 -0.101,-0.556 -0.303,-0.755 -0.203,-0.198 -0.463,-0.298 -0.782,-0.298 -0.322,0 -0.591,0.12 -0.806,0.36 -0.215,0.24 -0.33,0.564 -0.345,0.976 z"
       id="path90"
       inkscape:connector-curvature="0"
       style="fill:#ffffff" /><path
       d="m 242.258,251.039 c 0.577,0 1.073,0.142 1.491,0.424 0.417,0.283 0.739,0.715 0.967,1.297 0.227,0.582 0.341,1.392 0.341,2.43 0,1.049 -0.115,1.866 -0.347,2.449 -0.23,0.583 -0.542,1.012 -0.932,1.287 -0.39,0.273 -0.883,0.411 -1.477,0.411 -0.594,0 -1.094,-0.138 -1.499,-0.414 -0.405,-0.276 -0.722,-0.695 -0.951,-1.257 -0.229,-0.562 -0.344,-1.362 -0.344,-2.401 0,-1.45 0.224,-2.501 0.671,-3.153 0.499,-0.715 1.192,-1.073 2.08,-1.073 z m 0.034,1.429 c -0.253,0 -0.479,0.082 -0.675,0.244 -0.196,0.163 -0.347,0.443 -0.45,0.841 -0.103,0.398 -0.155,0.979 -0.155,1.746 0,0.999 0.119,1.689 0.356,2.071 0.238,0.381 0.546,0.572 0.924,0.572 0.365,0 0.654,-0.181 0.869,-0.542 0.261,-0.437 0.391,-1.167 0.391,-2.191 0,-1.039 -0.117,-1.754 -0.351,-2.148 -0.234,-0.394 -0.536,-0.593 -0.909,-0.593 z"
       id="path92"
       inkscape:connector-curvature="0"
       style="fill:#ffffff" /></g></svg>