<?xml version="1.0" encoding="UTF-8" standalone="no"?>
<svg
   xmlns:dc="http://purl.org/dc/elements/1.1/"
   xmlns:cc="http://creativecommons.org/ns#"
   xmlns:rdf="http://www.w3.org/1999/02/22-rdf-syntax-ns#"
   xmlns:svg="http://www.w3.org/2000/svg"
   xmlns="http://www.w3.org/2000/svg"
   xmlns:sodipodi="http://sodipodi.sourceforge.net/DTD/sodipodi-0.dtd"
   xmlns:inkscape="http://www.inkscape.org/namespaces/inkscape"
   version="1.1"
   x="0px"
   y="0px"
   width="240"
   height="240"
   viewBox="0 0 240 240.00001"
   enable-background="new 0 0 400.667 400.666"
   xml:space="preserve"
   id="svg2"
   inkscape:version="0.91 r13725"
   sodipodi:docname="adi_face.svg"><metadata
     id="metadata98"><rdf:RDF><cc:Work
         rdf:about=""><dc:format>image/svg+xml</dc:format><dc:type
           rdf:resource="http://purl.org/dc/dcmitype/StillImage" /><dc:title /></cc:Work></rdf:RDF></metadata><defs
     id="defs96" /><sodipodi:namedview
     pagecolor="#ffffff"
     bordercolor="#666666"
     borderopacity="1"
     objecttolerance="10"
     gridtolerance="10"
     guidetolerance="10"
     inkscape:pageopacity="0"
     inkscape:pageshadow="2"
     inkscape:window-width="1839"
     inkscape:window-height="1050"
     id="namedview94"
     showgrid="false"
     inkscape:zoom="5.2443753"
     inkscape:cx="74.818962"
     inkscape:cy="96.259879"
     inkscape:window-x="81"
     inkscape:window-y="30"
     inkscape:window-maximized="1"
     inkscape:current-layer="svg2" /><filter
     filterUnits="objectBoundingBox"
     id="AI_Shadow_1"><feGaussianBlur
       stdDeviation="5"
       result="blur"
       in="SourceAlpha"
       id="feGaussianBlur5" /><feOffset
       dy="0"
       dx="0"
       result="offsetBlurredAlpha"
       in="blur"
       id="feOffset7" /><feMerge
       id="feMerge9"><feMergeNode
         in="offsetBlurredAlpha"
         id="feMergeNode11" /><feMergeNode
         in="SourceGraphic"
         id="feMergeNode13" /></feMerge></filter><g
     id="g15"
     style="filter:url(#AI_Shadow_1)"
     transform="matrix(0.63937207,0,0,0.60313342,-8.0961386,-0.83329054)"><linearGradient
       id="SVGID_1_"
       gradientUnits="userSpaceOnUse"
       x1="200.33299"
       y1="276.33249"
       x2="200.33299"
       y2="124.3325"><stop
         offset="0"
         style="stop-color:#3D2618"
         id="stop18" /><stop
         offset="0.4999"
         style="stop-color:#503723"
         id="stop20" /><stop
         offset="0.5001"
         style="stop-color:#9CCBE5"
         id="stop22" /><stop
         offset="1"
         style="stop-color:#558EBB"
         id="stop24" /></linearGradient><path
       d="m 301.333,200.333 c 0,41.936 -33.963,75.938 -75.885,76 -0.038,0 -50.076,0 -50.114,0 -41.974,0 -76,-34.026 -76,-76 0,-41.974 34.026,-76 76,-76 0.027,0 50.056,0 50.083,0 41.935,0.044 75.916,34.054 75.916,76 z"
       id="path26"
       inkscape:connector-curvature="0"
       style="fill:url(#SVGID_1_)" /><path
       style="fill:#ffd42a"
       d="m 99.895285,165.63568 c -3.154433,-0.30229 -5.5081,-0.69527 -8.292135,-1.3845 -14.954701,-3.70224 -27.234954,-14.04905 -32.83048,-27.66156 -1.828854,-4.44914 -2.97876,-9.50922 -3.191808,-14.04534 l -0.08707,-1.85393 64.491132,0 64.49113,0 -0.0817,1.85393 c -0.25406,5.76765 -1.90412,11.84938 -4.69162,17.29213 -2.27646,4.44493 -4.98564,8.13692 -8.61193,11.73608 -8.04512,7.98495 -18.86249,12.95773 -30.47644,14.01014 -1.40617,0.12742 -39.42615,0.17695 -40.719105,0.0531 z m -2.662174,-10.39407 c 0.459593,-0.44032 0.637975,-1.05364 0.63895,-2.19685 9.43e-4,-1.02634 -0.39929,-1.98142 -0.943068,-2.25084 -0.831313,-0.41189 -1.985028,-0.085 -2.37901,0.67399 -0.485114,0.93459 -0.369943,2.98844 0.205045,3.65659 0.601235,0.69865 1.811392,0.75584 2.478083,0.11711 z m -3.405242,-0.10182 0,-0.47191 -0.821483,0 -0.821484,0 0.601356,-0.66886 c 1.171354,-1.30283 1.326804,-2.26444 0.488221,-3.02015 -0.392203,-0.35345 -0.495559,-0.38074 -1.238208,-0.32703 -0.704357,0.051 -0.860545,0.11486 -1.194737,0.48889 -0.240706,0.2694 -0.384451,0.58072 -0.384451,0.83264 0,0.36424 0.04152,0.40229 0.438202,0.40152 0.345195,-6.8e-4 0.486952,-0.0865 0.667886,-0.4045 0.411647,-0.72342 1.318878,-0.42529 1.125618,0.36989 -0.05164,0.21248 -0.616622,0.90321 -1.315003,1.60768 -1.613301,1.62738 -1.598067,1.66374 0.697043,1.66374 l 1.75704,0 0,-0.47191 z m 54.048071,0.13041 c 0.52698,-0.44342 0.7383,-1.11359 0.73064,-2.31708 -0.0105,-1.64207 -0.75933,-2.56378 -1.96362,-2.41681 -1.15729,0.14125 -1.61193,0.86486 -1.62163,2.581 -0.007,1.19082 0.18902,1.73257 0.79956,2.21282 0.52985,0.41678 1.52293,0.38783 2.05505,-0.0599 z m -3.21661,-0.26525 0,-0.47191 -0.83544,0 -0.83544,0 0.41754,-0.4382 c 1.20599,-1.26566 1.46295,-2.33922 0.7343,-3.06787 -0.76261,-0.76261 -2.07747,-0.63454 -2.68106,0.26114 -0.47414,0.70358 -0.41299,0.9528 0.23381,0.9528 0.38577,0 0.53932,-0.0567 0.53932,-0.19914 0,-0.10953 0.14762,-0.29586 0.32804,-0.41408 0.4639,-0.30396 0.88545,-0.0653 0.88545,0.50129 0,0.34472 -0.21255,0.63466 -1.21349,1.65532 -0.66741,0.68058 -1.21348,1.33982 -1.21348,1.46499 0,0.20231 0.2021,0.22757 1.82023,0.22757 l 1.82022,0 0,-0.47191 z m -5.66292,-1.82022 0,-0.67416 -19.21348,0 -19.21349,0 0,0.67416 0,0.67416 19.21349,0 19.21348,0 0,-0.67416 z m -10.78652,-8.35955 0,-0.67416 -8.08989,0 -8.08988,0 0,0.67416 0,0.67416 8.08988,0 8.08989,0 0,-0.67416 z m -24.86561,-6.32167 c 0.62546,-0.3814 0.86561,-1.01909 0.86561,-2.29854 0,-0.64912 -0.0792,-1.28584 -0.19413,-1.56094 -0.53218,-1.27369 -2.5235,-1.34877 -3.10792,-0.11718 -0.29956,0.63126 -0.40046,1.92703 -0.21142,2.71502 0.15519,0.64692 0.61622,1.24989 1.08651,1.42101 0.43214,0.15725 1.16477,0.0825 1.56135,-0.15937 z m 36.78374,0.0498 c 0.73815,-0.35027 0.95828,-0.8918 0.95828,-2.35737 0,-0.97022 -0.0578,-1.38664 -0.23824,-1.71682 -0.65712,-1.20238 -2.50118,-1.11747 -3.07277,0.14149 -0.35437,0.78052 -0.35131,2.3768 0.006,3.1642 0.4015,0.88463 1.4076,1.21411 2.34667,0.7685 l -1e-5,0 z m -40.232735,-2.35737 0,-2.42697 -0.787346,0 c -0.828869,0 -0.781722,-0.0329 -1.208328,0.8427 -0.0271,0.0556 0.168145,0.10112 0.433877,0.10112 l 0.483145,0 0,1.95506 0,1.95505 0.539326,0 0.539326,0 0,-2.42696 z m 36.943825,0 0,-2.42697 -0.79575,0 c -0.75076,0 -0.8115,0.0248 -1.07425,0.4382 l -0.27849,0.4382 0.53492,0.0415 0.53491,0.0415 0,1.9473 0,1.9473 0.53933,0 0.53933,0 0,-2.42696 z m -4.17978,0.13483 0,-0.67416 -12.8764,0 -12.87641,0 0,0.67416 0,0.67415 12.87641,0 12.8764,0 0,-0.67415 z m -4.44944,-8.35955 0,-0.67416 -8.02247,0 -8.02247,0 0,0.67416 0,0.67415 8.02247,0 8.02247,0 0,-0.67415 z"
       id="path4196"
       inkscape:connector-curvature="0"
       transform="matrix(1.5640346,0,0,1.658008,12.662628,1.3816023)" /><path
       style="fill:#ffd42a"
       d="m 97.50326,165.30933 c -9.264609,-1.2273 -17.835247,-4.85178 -24.974559,-10.56163 -2.084908,-1.66746 -5.481749,-5.04397 -7.065938,-7.02364 -5.781872,-7.22531 -9.141703,-15.70336 -9.790829,-24.70575 -0.07361,-1.02083 -0.134365,-1.96223 -0.135016,-2.09201 -0.0011,-0.22439 3.157274,-0.23595 64.448252,-0.23595 61.29098,0 64.44938,0.0116 64.44826,0.23595 -0.01,1.99827 -0.50798,6.11729 -1.01961,8.43416 -3.97159,17.98481 -19.1728,32.07633 -38.35,35.55042 -3.79375,0.68727 -3.48887,0.67924 -25.28007,0.66558 -19.14123,-0.012 -20.475347,-0.028 -22.28049,-0.26713 z m -0.611247,-9.78853 c 0.652523,-0.30964 0.974002,-1.05035 0.977839,-2.25301 0.0058,-1.81896 -0.53762,-2.64486 -1.740253,-2.64486 -0.849692,0 -1.496547,0.42783 -1.740235,1.151 -0.235077,0.69761 -0.146331,2.54521 0.149368,3.10967 0.408852,0.78046 1.454646,1.06363 2.353281,0.6372 z m -3.064144,-0.38101 0,-0.47191 -0.757815,0 -0.757814,0 0.469856,-0.5734 c 1.180801,-1.44102 1.336985,-2.18667 0.627312,-2.99495 -0.391656,-0.44607 -0.470256,-0.4766 -1.226967,-0.4766 -0.7397,0 -0.847517,0.039 -1.266931,0.45843 -0.324176,0.32417 -0.458427,0.58083 -0.458427,0.8764 0,0.387 0.03463,0.41798 0.467166,0.41798 0.327367,0 0.509859,-0.0798 0.609831,-0.26657 0.214258,-0.40035 0.649788,-0.59704 0.886677,-0.40043 0.411433,0.34145 0.205835,0.76431 -1.019854,2.09755 -1.160135,1.26193 -1.325186,1.51393 -1.123595,1.71552 0.04944,0.0494 0.868538,0.0899 1.820225,0.0899 l 1.730336,0 0,-0.47191 z m 53.984511,0.19034 c 0.47474,-0.37343 0.70536,-0.851 0.82009,-1.69824 0.14502,-1.07091 -0.13083,-2.1599 -0.68833,-2.71741 -0.43274,-0.43273 -0.50186,-0.45575 -1.1958,-0.3982 -1.2849,0.10655 -1.73175,0.77304 -1.74388,2.60103 -0.007,1.02982 0.0375,1.28673 0.29292,1.69743 0.3686,0.59268 0.72566,0.77597 1.53478,0.78783 0.43711,0.006 0.72878,-0.0747 0.98022,-0.27244 z m -3.15305,-0.32518 0,-0.47191 -0.75075,0 -0.75076,0 0.31255,-0.40996 c 0.74454,-0.97659 0.9239,-1.2706 1.04689,-1.71604 0.35485,-1.28514 -1.16347,-2.36633 -2.41452,-1.71939 -0.50788,0.26264 -0.94903,0.83643 -0.94903,1.23436 0,0.27635 0.0649,0.3189 0.48621,0.3189 0.35804,0 0.55612,-0.0889 0.75136,-0.33708 0.31945,-0.4061 0.72266,-0.43566 0.91974,-0.0674 0.19939,0.37257 0.0293,0.65142 -1.23385,2.02248 -0.58071,0.63033 -1.05639,1.25224 -1.05706,1.38202 -0.001,0.21313 0.17487,0.23595 1.819,0.23595 l 1.82022,0 0,-0.47191 z m -5.66292,-1.82022 0,-0.67416 -19.21348,0 -19.21349,0 0,0.67416 0,0.67416 19.21349,0 19.21348,0 0,-0.67416 z m -10.78652,-8.35955 0,-0.67416 -8.08989,0 -8.08988,0 0,0.67416 0,0.67416 8.08988,0 8.08989,0 0,-0.67416 z m -24.60632,-6.47231 c 0.4874,-0.45788 0.64176,-1.12472 0.58691,-2.53542 -0.0458,-1.17728 -0.0677,-1.25431 -0.47368,-1.6601 -0.33107,-0.33095 -0.57333,-0.43972 -1.09003,-0.48936 -1.28835,-0.1238 -1.91246,0.53621 -2.02751,2.14411 -0.0908,1.26863 0.0427,1.79722 0.61301,2.42853 0.48467,0.53647 0.50555,0.5445 1.27144,0.4891 0.58349,-0.0422 0.86419,-0.13667 1.11986,-0.37686 z m 36.69884,0.14194 c 0.59998,-0.36583 0.73919,-0.69851 0.81578,-1.94958 0.1213,-1.98135 -0.42008,-2.91158 -1.69392,-2.91056 -1.42053,0.001 -1.97256,0.81064 -1.887,2.76709 0.0764,1.74725 0.52084,2.32793 1.79622,2.34695 0.3095,0.005 0.72239,-0.10358 0.96892,-0.2539 z m -40.407125,-2.29884 0,-2.42697 -0.805526,0 c -0.755646,0 -0.818264,0.0246 -1.011236,0.3978 -0.277621,0.53686 -0.273155,0.54602 0.2662,0.54602 l 0.47191,0 0,1.95506 0,1.95505 0.539326,0 0.539326,0 0,-2.42696 z m 36.943825,0 0,-2.42697 -0.79921,0 c -0.7028,0 -0.83291,0.0428 -1.07865,0.35526 -0.39312,0.49978 -0.35392,0.58856 0.25988,0.58856 l 0.53932,0 0,1.95506 0,1.95505 0.53933,0 0.53933,0 0,-2.42696 z m -4.17978,0.13483 0,-0.67416 -12.8764,0 -12.87641,0 0,0.67416 0,0.67415 12.87641,0 12.8764,0 0,-0.67415 z m -4.44944,-8.35955 0,-0.67416 -8.02247,0 -8.02247,0 0,0.67416 0,0.67415 8.02247,0 8.02247,0 0,-0.67415 z"
       id="path4198"
       inkscape:connector-curvature="0"
       transform="matrix(1.5640346,0,0,1.658008,12.662628,1.3816023)" /><path
       style="fill:#ffd42a"
       d="m 97.60315,165.32044 c -2.517706,-0.33624 -3.250672,-0.47478 -5.766139,-1.08986 -9.339584,-2.28373 -17.64799,-7.06906 -23.999197,-13.82263 -7.237887,-7.69643 -11.383232,-16.99716 -12.163456,-27.29064 -0.07588,-1.00112 -0.138116,-1.95674 -0.138296,-2.12359 l -3.28e-4,-0.30337 64.466786,0 64.46678,0 -0.0916,1.51685 c -0.36543,6.04987 -1.71614,11.33466 -4.24729,16.61798 -0.92319,1.92702 -2.52755,4.69791 -3.63014,6.26966 -2.09744,2.98991 -5.76624,6.96599 -8.53264,9.2473 -6.35475,5.24045 -13.98426,8.83457 -22.13207,10.42601 -4.30287,0.84045 -3.70762,0.82198 -26.05261,0.80807 -18.8113,-0.0117 -20.497975,-0.0312 -22.17978,-0.25578 z m -0.550999,-9.94441 c 0.582856,-0.42686 0.820558,-1.06403 0.817491,-2.1913 -0.0047,-1.72518 -0.575296,-2.56226 -1.745931,-2.56129 -1.360093,0.001 -1.973692,0.92837 -1.864342,2.81732 0.06883,1.189 0.269102,1.61754 0.957848,2.04962 0.515837,0.32361 1.303997,0.27449 1.834934,-0.11435 z m -3.224282,-0.23624 0,-0.47191 -0.758853,0 -0.758853,0 0.357294,-0.43821 c 0.780243,-0.95693 1.060733,-1.46742 1.126405,-2.05007 0.06251,-0.55458 0.02822,-0.6456 -0.407295,-1.08112 -0.432941,-0.43294 -0.544414,-0.47555 -1.244091,-0.47555 -0.69425,0 -0.812852,0.0443 -1.226966,0.45843 -0.324176,0.32417 -0.458427,0.58083 -0.458427,0.8764 0,0.387 0.03463,0.41798 0.467166,0.41798 0.327367,0 0.509859,-0.0798 0.609831,-0.26657 0.214258,-0.40035 0.649788,-0.59704 0.886677,-0.40043 0.407778,0.33842 0.202742,0.76214 -1.033844,2.1365 -0.785767,0.87331 -1.199704,1.4366 -1.1503,1.56534 0.06294,0.16403 0.401182,0.20112 1.834216,0.20112 l 1.75704,0 0,-0.47191 z m 53.984511,0.19034 c 0.70684,-0.556 1.00624,-1.77532 0.75771,-3.08582 -0.26832,-1.41484 -1.15866,-2.02617 -2.34161,-1.6078 -0.7101,0.25113 -1.0097,0.69367 -1.18473,1.74996 -0.31919,1.92622 0.38943,3.22523 1.75939,3.22523 0.4563,0 0.75845,-0.0843 1.00924,-0.28157 z m -3.15305,-0.32518 0,-0.47191 -0.75282,0 -0.75282,0 0.28845,-0.37078 c 0.79669,-1.02412 1.08236,-1.58365 1.08236,-2.11999 0,-1.61346 -2.11283,-2.13311 -3.0905,-0.76011 -0.15416,0.2165 -0.28029,0.52079 -0.28029,0.67619 0,0.43742 0.88115,0.3986 1.23757,-0.0545 0.31945,-0.4061 0.72266,-0.43566 0.91974,-0.0674 0.19927,0.37236 0.0322,0.64861 -1.23355,2.0402 -0.58222,0.64009 -1.05859,1.262 -1.05859,1.38203 0,0.1903 0.23289,0.21822 1.82023,0.21822 l 1.82022,0 0,-0.47191 z m -5.66292,-1.82022 0,-0.67416 -19.21348,0 -19.21349,0 0,0.67416 0,0.67416 19.21349,0 19.21348,0 0,-0.67416 z m -10.78652,-8.35955 0,-0.67416 -8.08989,0 -8.08988,0 0,0.67416 0,0.67416 8.08988,0 8.08989,0 0,-0.67416 z m -24.83458,-6.34054 c 0.61108,-0.37256 0.83458,-0.98546 0.83458,-2.28867 0,-1.30322 -0.2235,-1.91611 -0.83458,-2.28868 -0.90164,-0.54972 -2.05086,-0.25838 -2.47068,0.62632 -0.35537,0.74887 -0.42503,2.1972 -0.1414,2.93986 0.4584,1.20032 1.58593,1.6368 2.61208,1.01117 z m 36.76254,0.0815 c 0.27102,-0.11324 0.55334,-0.37478 0.69017,-0.63938 0.30214,-0.58428 0.40244,-2.06232 0.19782,-2.91526 -0.21235,-0.88518 -0.62438,-1.26368 -1.46338,-1.3443 -1.36326,-0.13099 -2.04077,0.69422 -2.04624,2.49233 -0.002,0.59816 0.0831,1.18979 0.21969,1.53124 0.38176,0.95412 1.36011,1.31067 2.40194,0.87537 z m -40.242565,-2.37017 0,-2.42697 -0.805526,0 c -0.755646,0 -0.818264,0.0246 -1.011236,0.3978 -0.277621,0.53686 -0.273155,0.54602 0.2662,0.54602 l 0.47191,0 0,1.95506 0,1.95505 0.539326,0 0.539326,0 0,-2.42696 z m 36.943825,0 0,-2.42697 -0.79981,0 c -0.72893,0 -0.82452,0.0347 -1.07865,0.3916 -0.15337,0.21538 -0.27885,0.42774 -0.27885,0.47191 0,0.0442 0.2427,0.0803 0.53933,0.0803 l 0.53932,0 0,1.95506 0,1.95505 0.53933,0 0.53933,0 0,-2.42696 z m -4.17978,0.13483 0,-0.67416 -12.8764,0 -12.87641,0 0,0.67416 0,0.67415 12.87641,0 12.8764,0 0,-0.67415 z m -4.44944,-8.35955 0,-0.67416 -8.02247,0 -8.02247,0 0,0.67416 0,0.67415 8.02247,0 8.02247,0 0,-0.67415 z"
       id="path4200"
       inkscape:connector-curvature="0"
       transform="matrix(1.5640346,0,0,1.658008,12.662628,1.3816023)" /><path
       style="fill:#ffdd55"
       d="M 98.007644,165.38676 C 87.06166,164.04745 77.026824,159.34723 69.386187,151.98074 61.038357,143.93243 56.281427,133.66136 55.596911,122.2072 l -0.09065,-1.51685 64.464179,0 64.46417,0 -0.001,0.57303 c -0.005,1.86604 -0.49751,5.78473 -1.03045,8.19101 -3.13179,14.14033 -13.48326,26.25707 -27.56389,32.26446 -4.25078,1.81356 -9.35957,3.15978 -13.92812,3.67021 -2.43762,0.27235 -41.67523,0.27029 -43.903113,-0.002 l -3e-6,0 z m -0.998853,-9.97303 c 0.574473,-0.37641 0.771475,-0.84077 0.837017,-1.97297 0.04593,-0.79335 0.0039,-1.22137 -0.162633,-1.65751 -0.302277,-0.7915 -0.627962,-1.05294 -1.404646,-1.12757 -1.254687,-0.12056 -1.890361,0.5326 -2.013695,2.0691 -0.155155,1.9329 0.643116,3.13128 1.970555,2.95823 0.248854,-0.0324 0.596886,-0.15362 0.773402,-0.26928 z m -3.180922,-0.27394 0,-0.47191 -0.758853,0 -0.758853,0 0.355921,-0.43821 c 0.656643,-0.80844 1.15923,-1.77774 1.16052,-2.2382 9.44e-4,-0.33788 -0.118279,-0.57123 -0.473184,-0.92613 -0.458598,-0.4586 -0.50206,-0.47246 -1.300941,-0.41467 -0.722086,0.0522 -0.875059,0.11414 -1.210945,0.49006 -0.240706,0.2694 -0.384451,0.58072 -0.384451,0.83264 0,0.36755 0.03959,0.40237 0.457484,0.40237 0.274055,0 0.487394,-0.0779 0.53208,-0.19439 0.04103,-0.10692 0.229845,-0.29612 0.419594,-0.42044 0.278243,-0.18231 0.384006,-0.19369 0.546573,-0.0588 0.412179,0.34208 0.2148,0.76133 -1.011911,2.14938 -0.667416,0.75519 -1.213483,1.41973 -1.213483,1.47674 0,0.24335 0.270147,0.28344 1.910113,0.28344 l 1.730336,0 0,-0.47191 z m 54.048071,0.13041 c 0.53142,-0.44715 0.7475,-1.12504 0.73421,-2.30328 -0.0188,-1.66676 -0.70967,-2.55577 -1.89269,-2.43558 -1.21954,0.12391 -1.68624,0.83545 -1.69613,2.58597 -0.007,1.19082 0.18902,1.73257 0.79956,2.21282 0.52985,0.41678 1.52293,0.38783 2.05505,-0.0599 z m -3.21661,-0.25852 0,-0.46518 -0.75526,-0.0404 -0.75526,-0.0404 0.54892,-0.68832 c 0.63638,-0.79799 0.82677,-1.23383 0.82677,-1.89263 0,-0.97145 -1.2158,-1.63756 -2.26208,-1.23934 -0.51953,0.19773 -1.10871,0.91293 -1.10871,1.34585 0,0.40613 0.89933,0.34265 1.23757,-0.0874 0.31945,-0.4061 0.72266,-0.43566 0.91974,-0.0674 0.2,0.37372 0.0319,0.65254 -1.23179,2.04357 -0.58319,0.64194 -1.06035,1.26385 -1.06035,1.38203 0,0.18598 0.24465,0.21485 1.82023,0.21485 l 1.82022,0 0,-0.46518 z m -5.66292,-1.82695 0,-0.67416 -19.21348,0 -19.21349,0 0,0.67416 0,0.67416 19.21349,0 19.21348,0 0,-0.67416 z m -10.78652,-8.35955 0,-0.67416 -8.08989,0 -8.08988,0 0,0.67416 0,0.67416 8.08988,0 8.08989,0 0,-0.67416 z m -25.03446,-6.25127 c 0.7192,-0.3005 0.94676,-0.79174 1.00918,-2.17848 0.0651,-1.44657 -0.13873,-2.07528 -0.8093,-2.49615 -0.33857,-0.2125 -0.60245,-0.26667 -1.09307,-0.22439 -0.85608,0.0738 -1.37602,0.55949 -1.57071,1.46734 -0.29943,1.39617 -0.0951,2.47596 0.5999,3.171 0.49985,0.49985 1.09304,0.58281 1.864,0.26068 z m 36.98632,-0.0366 c 0.71543,-0.3395 0.91532,-0.84805 0.92028,-2.34137 0.006,-1.84613 -0.48234,-2.5618 -1.74854,-2.5618 -1.17616,0 -1.70083,0.69432 -1.79231,2.37184 -0.049,0.89852 -0.0102,1.20245 0.22018,1.72318 0.42226,0.95458 1.39889,1.28339 2.40039,0.80815 z m -40.266465,-2.34137 0,-2.42697 -0.731787,0 c -0.629968,0 -0.770668,0.0494 -1.011236,0.35526 -0.385458,0.49003 -0.353238,0.58856 0.192461,0.58856 l 0.47191,0 0,1.95506 0,1.95505 0.539326,0 0.539326,0 0,-2.42696 z m 36.943825,0 0,-2.42697 -0.79981,0 c -0.72893,0 -0.82452,0.0347 -1.07865,0.3916 -0.15337,0.21538 -0.27885,0.42774 -0.27885,0.47191 0,0.0442 0.2427,0.0803 0.53933,0.0803 l 0.53932,0 0,1.95506 0,1.95505 0.53933,0 0.53933,0 0,-2.42696 z m -4.17978,0.13483 0,-0.67416 -12.8764,0 -12.87641,0 0,0.67416 0,0.67415 12.87641,0 12.8764,0 0,-0.67415 z m -4.44944,-8.35955 0,-0.67416 -8.02247,0 -8.02247,0 0,0.67416 0,0.67415 8.02247,0 8.02247,0 0,-0.67415 z"
       id="path4202"
       inkscape:connector-curvature="0"
       transform="matrix(1.5640346,0,0,1.658008,12.662628,1.3816023)" /><path
       style="fill:#ffd42a"
       d="m 100.43461,165.45328 c -3.041459,-0.1025 -4.142332,-0.23875 -7.131904,-0.88273 -12.608792,-2.71601 -23.471289,-9.98161 -30.329696,-20.28661 -4.45864,-6.69927 -6.825278,-13.82161 -7.380548,-22.21157 l -0.09147,-1.38202 64.485994,0 64.486,0 -0.0952,1.51685 c -0.36513,5.81641 -1.58715,10.77736 -3.9108,15.87641 -4.44641,9.75723 -12.6004,17.9348 -22.66157,22.72707 -4.32473,2.05993 -8.96468,3.4904 -14.02247,4.32305 l -2.15731,0.35515 -19.07865,0.0333 c -10.49326,0.0183 -20.44382,-0.0127 -22.11236,-0.0689 z m -3.407299,-10.05507 c 0.572662,-0.36876 0.77706,-0.96872 0.77706,-2.2809 0,-0.90442 -0.06055,-1.3245 -0.237724,-1.6494 -0.619527,-1.13604 -2.323993,-1.12698 -3.010703,0.016 -0.374696,0.62366 -0.363589,2.66205 0.01808,3.31881 0.511563,0.88026 1.600548,1.14459 2.453282,0.5955 z m -3.199442,-0.25842 0,-0.47191 -0.74594,0 -0.745942,0 0.539026,-0.71394 c 0.606353,-0.80311 0.952856,-1.54356 0.952856,-2.03618 0,-0.19154 -0.191978,-0.53536 -0.454123,-0.81332 -0.391906,-0.41554 -0.538482,-0.48151 -1.069874,-0.48151 -0.338663,0 -0.771359,0.0592 -0.961545,0.13147 -0.398805,0.15163 -0.884004,0.87441 -0.88474,1.31797 -4.05e-4,0.2551 0.07229,0.30337 0.45698,0.30337 0.274055,0 0.487394,-0.0779 0.53208,-0.19439 0.04103,-0.10692 0.23318,-0.2983 0.427006,-0.4253 0.320207,-0.20981 0.371753,-0.21157 0.564054,-0.0193 0.339816,0.33982 0.134705,0.74409 -1.0999,2.16788 -0.632713,0.72966 -1.150387,1.3718 -1.150387,1.42696 0,0.23963 0.275851,0.28008 1.910113,0.28008 l 1.730336,0 0,-0.47191 z m 54.087391,0.12078 c 0.46105,-0.41076 0.65418,-1.04958 0.65418,-2.16377 0,-1.82644 -0.70386,-2.73596 -1.97033,-2.54604 -0.69977,0.10494 -1.32278,0.66133 -1.4494,1.29441 -0.0472,0.23619 -0.0859,0.89828 -0.0859,1.47131 0,1.14392 0.28222,1.77822 0.94787,2.13041 0.45535,0.24091 1.54359,0.1344 1.90357,-0.18632 z m -3.25593,-0.25562 0,-0.47191 -0.74839,0 -0.74838,0 0.62661,-0.87812 c 0.71747,-1.00544 0.88022,-1.68653 0.55383,-2.31771 -0.57078,-1.10377 -2.40144,-1.03771 -2.99393,0.10804 -0.32105,0.62084 -0.25715,0.79566 0.29085,0.79566 0.3608,0 0.5561,-0.0888 0.75714,-0.34442 0.37751,-0.47993 0.83295,-0.40149 0.88707,0.15277 0.0347,0.35529 -0.12558,0.6013 -1.11236,1.70751 -0.63409,0.71084 -1.15289,1.38865 -1.15289,1.50626 0,0.18466 0.24829,0.21383 1.82023,0.21383 l 1.82022,0 0,-0.47191 z m -5.66292,-1.82022 0,-0.67416 -19.21348,0 -19.21349,0 0,0.67416 0,0.67416 19.21349,0 19.21348,0 0,-0.67416 z m -10.78652,-8.35955 0,-0.67416 -8.08989,0 -8.08988,0 0,0.67416 0,0.67416 8.08988,0 8.08989,0 0,-0.67416 z m -25.00258,-6.26459 c 0.6744,-0.28178 0.99804,-1.05323 0.99201,-2.36462 -0.008,-1.72234 -0.44314,-2.39606 -1.62571,-2.5166 -1.13394,-0.11558 -1.79037,0.60239 -1.94595,2.1284 -0.22062,2.16407 0.96378,3.42797 2.57965,2.75282 z m 36.8702,-0.0218 c 0.68662,-0.27473 0.93546,-0.73687 1.0348,-1.92179 0.10668,-1.27244 -0.21528,-2.35734 -0.80657,-2.71787 -0.81516,-0.49703 -1.9752,-0.23259 -2.44134,0.55652 -0.52772,0.89336 -0.44272,2.93369 0.15165,3.64005 0.58026,0.68961 1.14304,0.81057 2.06146,0.44309 z m -40.182225,-2.34283 0,-2.42697 -0.731787,0 c -0.629968,0 -0.770668,0.0494 -1.011236,0.35526 -0.385458,0.49003 -0.353238,0.58856 0.192461,0.58856 l 0.47191,0 0,1.95506 0,1.95505 0.539326,0 0.539326,0 0,-2.42696 z m 36.943825,0 0,-2.42697 -0.79981,0 c -0.72893,0 -0.82452,0.0347 -1.07865,0.3916 -0.15337,0.21538 -0.27885,0.42774 -0.27885,0.47191 0,0.0442 0.2427,0.0803 0.53933,0.0803 l 0.53932,0 0,1.95506 0,1.95505 0.53933,0 0.53933,0 0,-2.42696 z m -4.17978,0.13483 0,-0.67416 -12.8764,0 -12.87641,0 0,0.67416 0,0.67415 12.87641,0 12.8764,0 0,-0.67415 z m -4.44944,-8.35955 0,-0.67416 -8.02247,0 -8.02247,0 0,0.67416 0,0.67415 8.02247,0 8.02247,0 0,-0.67415 z"
       id="path4204"
       inkscape:connector-curvature="0"
       transform="matrix(1.5640346,0,0,1.658008,12.662628,1.3816023)" /><path
       style="fill:#ffcc00"
       d="M 97.872813,165.37035 C 84.554675,163.80874 72.20714,156.78221 64.33525,146.28534 c -4.254398,-5.67308 -7.123865,-12.45194 -8.242633,-19.47249 -0.279187,-1.75197 -0.552911,-4.48653 -0.555492,-5.54947 l -0.0014,-0.57303 64.449436,0 64.44944,0 -0.001,0.64045 c -0.002,1.12306 -0.26917,3.82018 -0.55549,5.61688 -2.41974,15.18446 -13.06579,28.39019 -28.02988,34.7692 -3.46939,1.47896 -7.686,2.69457 -11.86268,3.41989 l -2.08989,0.36293 -21.23595,0.0262 c -17.09017,0.0211 -21.538664,-0.009 -22.786517,-0.15558 z m -0.851622,-9.96474 c 0.561684,-0.36803 0.759458,-0.83927 0.824617,-1.96485 0.106125,-1.83325 -0.510025,-2.81609 -1.766208,-2.81732 -1.14817,-0.001 -1.709903,0.67479 -1.818155,2.18774 -0.07668,1.07178 0.1434,1.98806 0.574885,2.39342 0.587713,0.55212 1.518324,0.63774 2.184861,0.20101 z m -3.193322,-0.2591 0,-0.46518 -0.759976,-0.0404 -0.759976,-0.0404 0.49999,-0.59737 c 0.5905,-0.70551 1.019962,-1.50482 1.019962,-1.89834 0,-0.39459 -0.346967,-1.02174 -0.703387,-1.27139 -0.33797,-0.23672 -1.259787,-0.27756 -1.782155,-0.079 -0.398805,0.15163 -0.884004,0.87441 -0.88474,1.31797 -4.05e-4,0.2551 0.07229,0.30337 0.45698,0.30337 0.274055,0 0.487394,-0.0779 0.53208,-0.19439 0.04103,-0.10692 0.229845,-0.29612 0.419594,-0.42044 0.278243,-0.18231 0.384006,-0.19369 0.546573,-0.0588 0.419309,0.348 0.219194,0.76938 -1.023337,2.15486 -0.755603,0.84254 -1.196324,1.44033 -1.1503,1.56026 0.05971,0.15559 0.425611,0.19444 1.831652,0.19444 l 1.75704,0 0,-0.46519 z m 53.998151,0.17288 c 0.54961,-0.43232 0.76023,-1.07153 0.75754,-2.29904 -0.002,-0.78134 -0.0714,-1.21247 -0.25345,-1.56888 -0.32035,-0.62704 -1.00499,-0.99841 -1.68715,-0.91516 -1.15784,0.14131 -1.60488,0.85653 -1.61281,2.58031 -0.006,1.19875 0.18747,1.73898 0.79074,2.21351 0.497,0.39094 1.50132,0.38557 2.00513,-0.0107 z m -3.16669,-0.30771 0,-0.46518 -0.75526,-0.0404 -0.75526,-0.0404 0.54892,-0.68832 c 0.63638,-0.79799 0.82677,-1.23383 0.82677,-1.89263 0,-0.97145 -1.2158,-1.63756 -2.26208,-1.23934 -0.51953,0.19773 -1.10871,0.91293 -1.10871,1.34585 0,0.40613 0.89933,0.34265 1.23757,-0.0874 0.32066,-0.40765 0.66055,-0.43234 0.89017,-0.0647 0.23499,0.37629 0.057,0.67899 -1.21961,2.07385 -0.57363,0.62677 -1.04296,1.23504 -1.04296,1.35171 0,0.18248 0.25444,0.21213 1.82023,0.21213 l 1.82022,0 0,-0.46518 z m -5.66292,-1.82695 0,-0.67416 -19.21348,0 -19.21349,0 0,0.67416 0,0.67416 19.21349,0 19.21348,0 0,-0.67416 z m -10.78652,-8.35955 0,-0.67416 -8.08989,0 -8.08988,0 0,0.67416 0,0.67416 8.08988,0 8.08989,0 0,-0.67416 z m -25.00134,-6.26511 c 0.73885,-0.30871 1.04771,-1.14035 0.97652,-2.62939 -0.0441,-0.92308 -0.11723,-1.25378 -0.34908,-1.57939 -0.37739,-0.53 -0.96871,-0.77148 -1.66158,-0.67854 -0.952,0.12769 -1.43263,0.79273 -1.55832,2.15623 -0.20053,2.17535 0.97036,3.40885 2.59246,2.73109 z m 37.26696,-0.27034 c 0.50699,-0.48573 0.72971,-1.34096 0.6477,-2.48713 -0.10594,-1.4807 -0.70345,-2.16843 -1.88395,-2.16843 -1.11243,0 -1.72008,0.905 -1.72008,2.5618 0,1.26465 0.30275,2.00708 0.95357,2.33842 0.64665,0.32922 1.5144,0.22322 2.00276,-0.24466 z m -40.580225,-2.09376 0,-2.42697 -0.731787,0 c -0.629968,0 -0.770668,0.0494 -1.011236,0.35526 -0.385458,0.49003 -0.353238,0.58856 0.192461,0.58856 l 0.47191,0 0,1.95506 0,1.95505 0.539326,0 0.539326,0 0,-2.42696 z m 36.943825,0 0,-2.42697 -0.80135,0 c -0.67524,0 -0.83437,0.0472 -1.01123,0.29966 -0.33144,0.47319 -0.26189,0.64416 0.26201,0.64416 l 0.47191,0 0,1.95506 0,1.95505 0.53933,0 0.53933,0 0,-2.42696 z m -4.17978,0.13483 0,-0.67416 -12.8764,0 -12.87641,0 0,0.67416 0,0.67415 12.87641,0 12.8764,0 0,-0.67415 z m -4.44944,-8.35955 0,-0.67416 -8.02247,0 -8.02247,0 0,0.67416 0,0.67415 8.02247,0 8.02247,0 0,-0.67415 z"
       id="path4206"
       inkscape:connector-curvature="0"
       transform="matrix(1.5640346,0,0,1.658008,12.662628,1.3816023)" /><path
       style="fill:#ffcc00"
       d="m 139.0503,137.71075 c -0.43515,-0.29055 -0.63105,-1.85207 -0.33128,-2.64054 0.18318,-0.48178 0.64483,-0.5892 1.0011,-0.23293 0.24475,0.24475 0.28752,0.44534 0.28752,1.34828 0,0.8539 -0.0501,1.11609 -0.25685,1.34456 -0.26962,0.29793 -0.45372,0.3454 -0.70049,0.18063 z"
       id="path4208"
       inkscape:connector-curvature="0"
       transform="matrix(1.5640346,0,0,1.658008,12.662628,1.3816023)" /><path
       style="fill:#ffcc00"
       d="m 146.33509,154.38757 c -0.2009,-0.222 -0.25191,-0.48176 -0.24517,-1.24861 0.0104,-1.18862 0.18774,-1.57221 0.72671,-1.57221 0.53409,0 0.69795,0.35264 0.69795,1.50202 0,1.40927 -0.54557,2.01927 -1.17949,1.3188 z"
       id="path4210"
       inkscape:connector-curvature="0"
       transform="matrix(1.5640346,0,0,1.658008,12.662628,1.3816023)" /><path
       style="fill:#ffcc00"
       d="m 101.97236,137.53012 c -0.37259,-0.41171 -0.37259,-2.2566 0,-2.66831 0.324,-0.35802 0.54515,-0.35823 0.90251,-8.7e-4 0.25175,0.25176 0.27777,0.40905 0.23595,1.4266 -0.0387,0.94284 -0.093,1.17725 -0.30872,1.33503 -0.35597,0.26028 -0.52786,0.24113 -0.82974,-0.0924 z"
       id="path4212"
       inkscape:connector-curvature="0"
       transform="matrix(1.5640346,0,0,1.658008,12.662628,1.3816023)" /><path
       style="fill:#ffcc00"
       d="m 95.704376,154.55114 c -0.240533,-0.19477 -0.318421,-0.42162 -0.364771,-1.06241 -0.07624,-1.054 0.149751,-1.75909 0.60004,-1.8721 0.540164,-0.13558 0.770772,0.21681 0.827946,1.26516 0.05519,1.01204 -0.09836,1.56431 -0.493781,1.77593 -0.203734,0.10904 -0.333052,0.0848 -0.569434,-0.10658 z"
       id="path4214"
       inkscape:connector-curvature="0"
       transform="matrix(1.5640346,0,0,1.658008,12.662628,1.3816023)" /></g><line
     stroke-miterlimit="10"
     x1="55.628151"
     y1="120.06902"
     x2="184.78133"
     y2="120.06902"
     id="line28"
     style="fill:none;stroke:#ffffff;stroke-width:1.24197698;stroke-miterlimit:10" /><line
     stroke-miterlimit="10"
     x1="112.09241"
     y1="112.17824"
     x2="128.07668"
     y2="112.17824"
     id="line30"
     style="fill:none;stroke:#ffffff;stroke-width:1.24197698;stroke-miterlimit:10" /><line
     stroke-miterlimit="10"
     x1="112.21259"
     y1="127.93508"
     x2="128.1969"
     y2="127.93508"
     id="line32"
     style="fill:none;stroke:#ffffff;stroke-width:1.24197698;stroke-miterlimit:10" /><line
     stroke-miterlimit="10"
     x1="112.12244"
     y1="144.77518"
     x2="128.10675"
     y2="144.77518"
     id="line34"
     style="fill:none;stroke:#ffffff;stroke-width:1.24197698;stroke-miterlimit:10" /><line
     stroke-miterlimit="10"
     x1="112.21259"
     y1="95.290482"
     x2="128.1969"
     y2="95.290482"
     id="line36"
     style="fill:none;stroke:#ffffff;stroke-width:1.24197698;stroke-miterlimit:10" /><line
     stroke-miterlimit="10"
     x1="107.01768"
     y1="103.75305"
     x2="132.59259"
     y2="103.75305"
     id="line38"
     style="fill:none;stroke:#ffffff;stroke-width:1.24197698;stroke-miterlimit:10" /><line
     stroke-miterlimit="10"
     x1="107.01768"
     y1="136.37895"
     x2="132.59259"
     y2="136.37895"
     id="line40"
     style="fill:none;stroke:#ffffff;stroke-width:1.24197698;stroke-miterlimit:10" /><line
     stroke-miterlimit="10"
     x1="100.62398"
     y1="153.16599"
     x2="138.98628"
     y2="153.16599"
     id="line42"
     style="fill:none;stroke:#ffffff;stroke-width:1.24197698;stroke-miterlimit:10" /><line
     stroke-miterlimit="10"
     x1="100.62398"
     y1="86.821892"
     x2="138.98628"
     y2="86.821892"
     id="line44"
     style="fill:none;stroke:#ffffff;stroke-width:1.24197698;stroke-miterlimit:10" /><g
     id="g46"
     transform="matrix(0.63937207,0,0,0.60313342,-8.0961386,-0.83329054)"><path
       d="m 166.644,169.224 2.25,0 0,7.901 -1.493,0 0,-6.488 -1.627,0 0.87,-1.413 z"
       id="path48"
       inkscape:connector-curvature="0"
       style="fill:#ffffff" /><path
       d="m 172.84,169.025 c 0.577,0 1.073,0.142 1.491,0.424 0.417,0.283 0.739,0.715 0.967,1.297 0.227,0.582 0.341,1.392 0.341,2.43 0,1.049 -0.115,1.866 -0.347,2.449 -0.23,0.583 -0.542,1.012 -0.932,1.287 -0.39,0.273 -0.883,0.411 -1.477,0.411 -0.594,0 -1.094,-0.138 -1.499,-0.414 -0.405,-0.276 -0.722,-0.695 -0.951,-1.257 -0.229,-0.562 -0.344,-1.362 -0.344,-2.401 0,-1.45 0.224,-2.501 0.671,-3.153 0.499,-0.715 1.192,-1.073 2.08,-1.073 z m 0.035,1.429 c -0.253,0 -0.479,0.082 -0.675,0.244 -0.196,0.163 -0.347,0.443 -0.45,0.841 -0.103,0.398 -0.155,0.979 -0.155,1.746 0,0.999 0.119,1.689 0.356,2.071 0.238,0.381 0.546,0.572 0.924,0.572 0.365,0 0.654,-0.181 0.869,-0.542 0.261,-0.437 0.391,-1.167 0.391,-2.191 0,-1.039 -0.117,-1.754 -0.351,-2.148 -0.234,-0.394 -0.537,-0.593 -0.909,-0.593 z"
       id="path50"
       inkscape:connector-curvature="0"
       style="fill:#ffffff" /></g><g
     id="g52"
     transform="matrix(0.63937207,0,0,0.60313342,-8.0961386,-0.83329054)"><path
       d="m 155.584,143.883 -1.466,0 c 0.04,-0.852 0.307,-1.523 0.803,-2.011 0.496,-0.489 1.133,-0.733 1.91,-0.733 0.48,0 0.903,0.101 1.27,0.304 0.367,0.202 0.661,0.494 0.881,0.875 0.221,0.382 0.331,0.769 0.331,1.163 0,0.469 -0.133,0.974 -0.4,1.515 -0.267,0.541 -0.755,1.18 -1.464,1.917 l -0.887,0.935 2.816,0 0,1.391 -5.473,0 0,-0.72 2.444,-2.492 c 0.591,-0.598 0.984,-1.079 1.179,-1.442 0.195,-0.363 0.292,-0.692 0.292,-0.985 0,-0.304 -0.101,-0.556 -0.303,-0.755 -0.203,-0.198 -0.463,-0.298 -0.782,-0.298 -0.322,0 -0.591,0.12 -0.806,0.36 -0.215,0.24 -0.33,0.564 -0.345,0.976 z"
       id="path54"
       inkscape:connector-curvature="0"
       style="fill:#ffffff" /><path
       d="m 162.884,141.138 c 0.577,0 1.073,0.142 1.491,0.424 0.417,0.283 0.739,0.715 0.967,1.297 0.227,0.582 0.341,1.392 0.341,2.43 0,1.049 -0.115,1.866 -0.347,2.449 -0.23,0.583 -0.542,1.012 -0.932,1.287 -0.39,0.273 -0.883,0.411 -1.477,0.411 -0.594,0 -1.094,-0.138 -1.499,-0.414 -0.405,-0.276 -0.722,-0.695 -0.951,-1.257 -0.229,-0.562 -0.344,-1.362 -0.344,-2.401 0,-1.45 0.224,-2.501 0.671,-3.153 0.499,-0.715 1.192,-1.073 2.08,-1.073 z m 0.034,1.429 c -0.253,0 -0.479,0.082 -0.675,0.244 -0.196,0.163 -0.347,0.443 -0.45,0.841 -0.103,0.398 -0.155,0.979 -0.155,1.746 0,0.999 0.119,1.689 0.356,2.071 0.238,0.381 0.546,0.572 0.924,0.572 0.365,0 0.654,-0.181 0.869,-0.542 0.261,-0.437 0.391,-1.167 0.391,-2.191 0,-1.039 -0.117,-1.754 -0.351,-2.148 -0.234,-0.394 -0.536,-0.593 -0.909,-0.593 z"
       id="path56"
       inkscape:connector-curvature="0"
       style="fill:#ffffff" /></g><g
     id="g58"
     transform="matrix(0.63937207,0,0,0.60313342,-8.0961386,-0.83329054)"><path
       d="m 234.958,143.784 -1.466,0 c 0.04,-0.852 0.307,-1.523 0.803,-2.011 0.496,-0.489 1.133,-0.733 1.91,-0.733 0.48,0 0.903,0.101 1.27,0.304 0.367,0.202 0.661,0.494 0.881,0.875 0.221,0.382 0.331,0.769 0.331,1.163 0,0.469 -0.133,0.974 -0.4,1.515 -0.267,0.541 -0.755,1.18 -1.464,1.917 l -0.887,0.935 2.816,0 0,1.391 -5.473,0 0,-0.72 2.444,-2.492 c 0.591,-0.598 0.984,-1.079 1.179,-1.442 0.195,-0.363 0.292,-0.692 0.292,-0.985 0,-0.304 -0.101,-0.556 -0.303,-0.755 -0.203,-0.198 -0.463,-0.298 -0.782,-0.298 -0.322,0 -0.591,0.12 -0.806,0.36 -0.215,0.24 -0.33,0.564 -0.345,0.976 z"
       id="path60"
       inkscape:connector-curvature="0"
       style="fill:#ffffff" /><path
       d="m 242.258,141.039 c 0.577,0 1.073,0.142 1.491,0.424 0.417,0.283 0.739,0.715 0.967,1.297 0.227,0.582 0.341,1.392 0.341,2.43 0,1.049 -0.115,1.866 -0.347,2.449 -0.23,0.583 -0.542,1.012 -0.932,1.287 -0.39,0.273 -0.883,0.411 -1.477,0.411 -0.594,0 -1.094,-0.138 -1.499,-0.414 -0.405,-0.276 -0.722,-0.695 -0.951,-1.257 -0.229,-0.562 -0.344,-1.362 -0.344,-2.401 0,-1.45 0.224,-2.501 0.671,-3.153 0.499,-0.715 1.192,-1.073 2.08,-1.073 z m 0.034,1.429 c -0.253,0 -0.479,0.082 -0.675,0.244 -0.196,0.163 -0.347,0.443 -0.45,0.841 -0.103,0.398 -0.155,0.979 -0.155,1.746 0,0.999 0.119,1.689 0.356,2.071 0.238,0.381 0.546,0.572 0.924,0.572 0.365,0 0.654,-0.181 0.869,-0.542 0.261,-0.437 0.391,-1.167 0.391,-2.191 0,-1.039 -0.117,-1.754 -0.351,-2.148 -0.234,-0.394 -0.536,-0.593 -0.909,-0.593 z"
       id="path62"
       inkscape:connector-curvature="0"
       style="fill:#ffffff" /></g><g
     id="g64"
     transform="matrix(0.63937207,0,0,0.60313342,-8.0961386,-0.83329054)"><path
       d="m 224.341,169.224 2.25,0 0,7.901 -1.493,0 0,-6.488 -1.627,0 0.87,-1.413 z"
       id="path66"
       inkscape:connector-curvature="0"
       style="fill:#ffffff" /><path
       d="m 230.538,169.025 c 0.577,0 1.073,0.142 1.491,0.424 0.417,0.283 0.739,0.715 0.967,1.297 0.227,0.582 0.341,1.392 0.341,2.43 0,1.049 -0.115,1.866 -0.347,2.449 -0.23,0.583 -0.542,1.012 -0.932,1.287 -0.39,0.273 -0.883,0.411 -1.477,0.411 -0.594,0 -1.094,-0.138 -1.499,-0.414 -0.405,-0.276 -0.722,-0.695 -0.951,-1.257 -0.229,-0.562 -0.344,-1.362 -0.344,-2.401 0,-1.45 0.224,-2.501 0.671,-3.153 0.499,-0.715 1.191,-1.073 2.08,-1.073 z m 0.034,1.429 c -0.253,0 -0.479,0.082 -0.675,0.244 -0.196,0.163 -0.347,0.443 -0.45,0.841 -0.103,0.398 -0.155,0.979 -0.155,1.746 0,0.999 0.119,1.689 0.356,2.071 0.238,0.381 0.546,0.572 0.924,0.572 0.365,0 0.654,-0.181 0.869,-0.542 0.261,-0.437 0.391,-1.167 0.391,-2.191 0,-1.039 -0.117,-1.754 -0.351,-2.148 -0.234,-0.394 -0.537,-0.593 -0.909,-0.593 z"
       id="path68"
       inkscape:connector-curvature="0"
       style="fill:#ffffff" /></g><g
     id="g70"
     transform="matrix(0.63937207,0,0,0.60313342,-8.0961386,-0.83329054)"><path
       d="m 166.644,223.224 2.25,0 0,7.901 -1.493,0 0,-6.488 -1.627,0 0.87,-1.413 z"
       id="path72"
       inkscape:connector-curvature="0"
       style="fill:#ffffff" /><path
       d="m 172.84,223.025 c 0.577,0 1.073,0.142 1.491,0.424 0.417,0.283 0.739,0.715 0.967,1.297 0.227,0.582 0.341,1.392 0.341,2.43 0,1.049 -0.115,1.866 -0.347,2.449 -0.23,0.583 -0.542,1.012 -0.932,1.287 -0.39,0.273 -0.883,0.411 -1.477,0.411 -0.594,0 -1.094,-0.138 -1.499,-0.414 -0.405,-0.276 -0.722,-0.695 -0.951,-1.257 -0.229,-0.562 -0.344,-1.362 -0.344,-2.401 0,-1.45 0.224,-2.501 0.671,-3.153 0.499,-0.715 1.192,-1.073 2.08,-1.073 z m 0.035,1.429 c -0.253,0 -0.479,0.082 -0.675,0.244 -0.196,0.163 -0.347,0.443 -0.45,0.841 -0.103,0.398 -0.155,0.979 -0.155,1.746 0,0.999 0.119,1.689 0.356,2.071 0.238,0.381 0.546,0.572 0.924,0.572 0.365,0 0.654,-0.181 0.869,-0.542 0.261,-0.437 0.391,-1.167 0.391,-2.191 0,-1.039 -0.117,-1.754 -0.351,-2.148 -0.234,-0.394 -0.537,-0.593 -0.909,-0.593 z"
       id="path74"
       inkscape:connector-curvature="0"
       style="fill:#ffffff" /></g><g
     id="g76"
     transform="matrix(0.63937207,0,0,0.60313342,-8.0961386,-0.83329054)"><path
       d="m 224.341,223.224 2.25,0 0,7.901 -1.493,0 0,-6.488 -1.627,0 0.87,-1.413 z"
       id="path78"
       inkscape:connector-curvature="0"
       style="fill:#ffffff" /><path
       d="m 230.538,223.025 c 0.577,0 1.073,0.142 1.491,0.424 0.417,0.283 0.739,0.715 0.967,1.297 0.227,0.582 0.341,1.392 0.341,2.43 0,1.049 -0.115,1.866 -0.347,2.449 -0.23,0.583 -0.542,1.012 -0.932,1.287 -0.39,0.273 -0.883,0.411 -1.477,0.411 -0.594,0 -1.094,-0.138 -1.499,-0.414 -0.405,-0.276 -0.722,-0.695 -0.951,-1.257 -0.229,-0.562 -0.344,-1.362 -0.344,-2.401 0,-1.45 0.224,-2.501 0.671,-3.153 0.499,-0.715 1.191,-1.073 2.08,-1.073 z m 0.034,1.429 c -0.253,0 -0.479,0.082 -0.675,0.244 -0.196,0.163 -0.347,0.443 -0.45,0.841 -0.103,0.398 -0.155,0.979 -0.155,1.746 0,0.999 0.119,1.689 0.356,2.071 0.238,0.381 0.546,0.572 0.924,0.572 0.365,0 0.654,-0.181 0.869,-0.542 0.261,-0.437 0.391,-1.167 0.391,-2.191 0,-1.039 -0.117,-1.754 -0.351,-2.148 -0.234,-0.394 -0.537,-0.593 -0.909,-0.593 z"
       id="path80"
       inkscape:connector-curvature="0"
       style="fill:#ffffff" /></g><g
     id="g82"
     transform="matrix(0.63937207,0,0,0.60313342,-8.0961386,-0.83329054)"><path
       d="m 155.584,253.883 -1.466,0 c 0.04,-0.852 0.307,-1.523 0.803,-2.011 0.496,-0.489 1.133,-0.733 1.91,-0.733 0.48,0 0.903,0.101 1.27,0.304 0.367,0.202 0.661,0.494 0.881,0.875 0.221,0.382 0.331,0.769 0.331,1.163 0,0.469 -0.133,0.974 -0.4,1.515 -0.267,0.541 -0.755,1.18 -1.464,1.917 l -0.887,0.935 2.816,0 0,1.391 -5.473,0 0,-0.72 2.444,-2.492 c 0.591,-0.598 0.984,-1.079 1.179,-1.442 0.195,-0.363 0.292,-0.692 0.292,-0.985 0,-0.304 -0.101,-0.556 -0.303,-0.755 -0.203,-0.198 -0.463,-0.298 -0.782,-0.298 -0.322,0 -0.591,0.12 -0.806,0.36 -0.215,0.24 -0.33,0.564 -0.345,0.976 z"
       id="path84"
       inkscape:connector-curvature="0"
       style="fill:#ffffff" /><path
       d="m 162.884,251.138 c 0.577,0 1.073,0.142 1.491,0.424 0.417,0.283 0.739,0.715 0.967,1.297 0.227,0.582 0.341,1.392 0.341,2.43 0,1.049 -0.115,1.866 -0.347,2.449 -0.23,0.583 -0.542,1.012 -0.932,1.287 -0.39,0.273 -0.883,0.411 -1.477,0.411 -0.594,0 -1.094,-0.138 -1.499,-0.414 -0.405,-0.276 -0.722,-0.695 -0.951,-1.257 -0.229,-0.562 -0.344,-1.362 -0.344,-2.401 0,-1.45 0.224,-2.501 0.671,-3.153 0.499,-0.715 1.192,-1.073 2.08,-1.073 z m 0.034,1.429 c -0.253,0 -0.479,0.082 -0.675,0.244 -0.196,0.163 -0.347,0.443 -0.45,0.841 -0.103,0.398 -0.155,0.979 -0.155,1.746 0,0.999 0.119,1.689 0.356,2.071 0.238,0.381 0.546,0.572 0.924,0.572 0.365,0 0.654,-0.181 0.869,-0.542 0.261,-0.437 0.391,-1.167 0.391,-2.191 0,-1.039 -0.117,-1.754 -0.351,-2.148 -0.234,-0.394 -0.536,-0.593 -0.909,-0.593 z"
       id="path86"
       inkscape:connector-curvature="0"
       style="fill:#ffffff" /></g><g
     id="g88"
     transform="matrix(0.63937207,0,0,0.60313342,-8.0961386,-0.83329054)"><path
       d="m 234.958,253.784 -1.466,0 c 0.04,-0.852 0.307,-1.523 0.803,-2.011 0.496,-0.489 1.133,-0.733 1.91,-0.733 0.48,0 0.903,0.101 1.27,0.304 0.367,0.202 0.661,0.494 0.881,0.875 0.221,0.382 0.331,0.769 0.331,1.163 0,0.469 -0.133,0.974 -0.4,1.515 -0.267,0.541 -0.755,1.18 -1.464,1.917 l -0.887,0.935 2.816,0 0,1.391 -5.473,0 0,-0.72 2.444,-2.492 c 0.591,-0.598 0.984,-1.079 1.179,-1.442 0.195,-0.363 0.292,-0.692 0.292,-0.985 0,-0.304 -0.101,-0.556 -0.303,-0.755 -0.203,-0.198 -0.463,-0.298 -0.782,-0.298 -0.322,0 -0.591,0.12 -0.806,0.36 -0.215,0.24 -0.33,0.564 -0.345,0.976 z"
       id="path90"
       inkscape:connector-curvature="0"
       style="fill:#ffffff" /><path
       d="m 242.258,251.039 c 0.577,0 1.073,0.142 1.491,0.424 0.417,0.283 0.739,0.715 0.967,1.297 0.227,0.582 0.341,1.392 0.341,2.43 0,1.049 -0.115,1.866 -0.347,2.449 -0.23,0.583 -0.542,1.012 -0.932,1.287 -0.39,0.273 -0.883,0.411 -1.477,0.411 -0.594,0 -1.094,-0.138 -1.499,-0.414 -0.405,-0.276 -0.722,-0.695 -0.951,-1.257 -0.229,-0.562 -0.344,-1.362 -0.344,-2.401 0,-1.45 0.224,-2.501 0.671,-3.153 0.499,-0.715 1.192,-1.073 2.08,-1.073 z m 0.034,1.429 c -0.253,0 -0.479,0.082 -0.675,0.244 -0.196,0.163 -0.347,0.443 -0.45,0.841 -0.103,0.398 -0.155,0.979 -0.155,1.746 0,0.999 0.119,1.689 0.356,2.071 0.238,0.381 0.546,0.572 0.924,0.572 0.365,0 0.654,-0.181 0.869,-0.542 0.261,-0.437 0.391,-1.167 0.391,-2.191 0,-1.039 -0.117,-1.754 -0.351,-2.148 -0.234,-0.394 -0.536,-0.593 -0.909,-0.593 z"
       id="path92"
       inkscape:connector-curvature="0"
       style="fill:#ffffff" /></g></svg>