<?xml version="1.0" encoding="UTF-8" standalone="no"?>
<svg
   xmlns:dc="http://purl.org/dc/elements/1.1/"
   xmlns:cc="http://creativecommons.org/ns#"
   xmlns:rdf="http://www.w3.org/1999/02/22-rdf-syntax-ns#"
   xmlns:svg="http://www.w3.org/2000/svg"
   xmlns="http://www.w3.org/2000/svg"
   xmlns:sodipodi="http://sodipodi.sourceforge.net/DTD/sodipodi-0.dtd"
   xmlns:inkscape="http://www.inkscape.org/namespaces/inkscape"
   version="1.1"
   x="0px"
   y="0px"
   width="240"
   height="240"
   viewBox="0 0 240 240.00001"
   enable-background="new 0 0 400.667 400.666"
   xml:space="preserve"
   id="svg2"
   inkscape:version="0.91 r13725"
   sodipodi:docname="adi_ring.svg"><metadata
     id="metadata45"><rdf:RDF><cc:Work
         rdf:about=""><dc:format>image/svg+xml</dc:format><dc:type
           rdf:resource="http://purl.org/dc/dcmitype/StillImage" /><dc:title /></cc:Work></rdf:RDF></metadata><defs
     id="defs43" /><sodipodi:namedview
     pagecolor="#ffffff"
     bordercolor="#666666"
     borderopacity="1"
     objecttolerance="10"
     gridtolerance="10"
     guidetolerance="10"
     inkscape:pageopacity="0"
     inkscape:pageshadow="2"
     inkscape:window-width="1839"
     inkscape:window-height="1050"
     id="namedview41"
     showgrid="false"
     inkscape:zoom="3.7083333"
     inkscape:cx="120"
     inkscape:cy="120"
     inkscape:window-x="81"
     inkscape:window-y="30"
     inkscape:window-maximized="1"
     inkscape:current-layer="svg2" /><filter
     filterUnits="objectBoundingBox"
     id="AI_Shadow_1"><feGaussianBlur
       stdDeviation="5"
       result="blur"
       in="SourceAlpha"
       id="feGaussianBlur5" /><feOffset
       dy="0"
       dx="0"
       result="offsetBlurredAlpha"
       in="blur"
       id="feOffset7" /><feMerge
       id="feMerge9"><feMergeNode
         in="offsetBlurredAlpha"
         id="feMergeNode11" /><feMergeNode
         in="SourceGraphic"
         id="feMergeNode13" /></feMerge></filter><g
     id="Layer_2"
     transform="matrix(0.66804212,0,0,0.66739829,-14.05378,-13.597368)"><linearGradient
       id="SVGID_2_"
       gradientUnits="userSpaceOnUse"
       x1="200.66701"
       y1="349.93311"
       x2="200.66701"
       y2="50.399899"><stop
         offset="0.4999"
         style="stop-color:#503723"
         id="stop17" /><stop
         offset="0.5001"
         style="stop-color:#558EBB"
         id="stop19" /></linearGradient><path
       d="M 200.667,50.4 C 117.953,50.4 50.9,117.453 50.9,200.167 c 0,82.714 67.053,149.767 149.767,149.767 82.714,0 149.767,-67.053 149.767,-149.767 C 350.434,117.453 283.38,50.4 200.667,50.4 Z m 0,250.1 c -55.413,0 -100.334,-44.921 -100.334,-100.334 0,-55.412 44.921,-100.333 100.334,-100.333 55.412,0 100.333,44.92 100.333,100.333 0,55.413 -44.921,100.334 -100.333,100.334 z"
       id="path21"
       inkscape:connector-curvature="0"
       style="fill:url(#SVGID_2_);filter:url(#AI_Shadow_1)" /><line
       stroke-miterlimit="10"
       x1="50.667"
       y1="200.33299"
       x2="100.333"
       y2="200.33299"
       id="line23"
       style="fill:none;stroke:#ffffff;stroke-width:4;stroke-miterlimit:10" /><line
       stroke-miterlimit="10"
       x1="300.74899"
       y1="200.33299"
       x2="350.43301"
       y2="200.33299"
       id="line25"
       style="fill:none;stroke:#ffffff;stroke-width:4;stroke-miterlimit:10" /><line
       stroke-miterlimit="10"
       x1="78.415001"
       y1="131.582"
       x2="112.082"
       y2="151.91499"
       id="line27"
       style="fill:none;stroke:#ffffff;stroke-width:4;stroke-miterlimit:10" /><line
       stroke-miterlimit="10"
       x1="288.75101"
       y1="151.91499"
       x2="323.58499"
       y2="131.582"
       id="line29"
       style="fill:none;stroke:#ffffff;stroke-width:4;stroke-miterlimit:10" /><line
       stroke-miterlimit="10"
       x1="149.418"
       y1="113.75"
       x2="129.418"
       y2="79.25"
       id="line31"
       style="fill:none;stroke:#ffffff;stroke-width:4;stroke-miterlimit:10" /><line
       stroke-miterlimit="10"
       x1="252.084"
       y1="113.75"
       x2="272.75101"
       y2="79.25"
       id="line33"
       style="fill:none;stroke:#ffffff;stroke-width:4;stroke-miterlimit:10" /><polygon
       points="200.585,98.918 185.918,60.085 215.251,60.085 "
       id="polygon35"
       style="fill:#ffffff" /><polygon
       points="126.584,131.582 119.084,117.417 112.082,124.251 "
       id="polygon37"
       style="fill:#ffffff" /><polygon
       points="288.751,124.5 274.084,131.582 281.251,117.417 "
       id="polygon39"
       style="fill:#ffffff" /></g><path
     style="fill:#ffcc00"
     d="M 112.61124,219.61004 C 87.767393,217.43728 66.311418,207.54846 49.238279,190.40212 31.647926,172.73635 21.451447,149.84591 20.217162,125.25156 l -0.182354,-3.63358 16.44902,0 16.449021,0 0.170848,3.17743 c 0.927843,17.25592 9.813959,34.76082 23.532297,46.35666 24.604986,20.79811 60.456406,21.1858 85.579716,0.92544 14.42902,-11.63609 23.61154,-29.32851 24.73279,-47.65391 l 0.17166,-2.80562 16.44498,0 16.44498,0 -0.18865,3.4382 c -1.75077,31.90803 -18.14994,60.60311 -44.64844,78.12533 -6.57801,4.34973 -11.22875,6.79779 -18.20224,9.58132 -7.66007,3.05757 -15.65227,5.11564 -24.67416,6.35384 -2.96612,0.40708 -16.72817,0.75199 -19.68539,0.49337 z"
     id="path4152"
     inkscape:connector-curvature="0" /></svg>