<?xml version="1.0" encoding="UTF-8" standalone="no"?>
<svg
   xmlns:dc="http://purl.org/dc/elements/1.1/"
   xmlns:cc="http://creativecommons.org/ns#"
   xmlns:rdf="http://www.w3.org/1999/02/22-rdf-syntax-ns#"
   xmlns:svg="http://www.w3.org/2000/svg"
   xmlns="http://www.w3.org/2000/svg"
   xmlns:sodipodi="http://sodipodi.sourceforge.net/DTD/sodipodi-0.dtd"
   xmlns:inkscape="http://www.inkscape.org/namespaces/inkscape"
   version="1.1"
   id="Layer_2"
   x="0px"
   y="0px"
   width="240"
   height="240"
   viewBox="0 0 240 240.00001"
   enable-background="new 0 0 400.667 400.666"
   xml:space="preserve"
   inkscape:version="0.91 r13725"
   sodipodi:docname="heading_yaw.svg"><metadata
     id="metadata213"><rdf:RDF><cc:Work
         rdf:about=""><dc:format>image/svg+xml</dc:format><dc:type
           rdf:resource="http://purl.org/dc/dcmitype/StillImage" /><dc:title /></cc:Work></rdf:RDF></metadata><defs
     id="defs211" /><sodipodi:namedview
     pagecolor="#ffffff"
     bordercolor="#666666"
     borderopacity="1"
     objecttolerance="10"
     gridtolerance="10"
     guidetolerance="10"
     inkscape:pageopacity="0"
     inkscape:pageshadow="2"
     inkscape:window-width="1839"
     inkscape:window-height="1050"
     id="namedview209"
     showgrid="false"
     inkscape:zoom="3.3319964"
     inkscape:cx="171.22319"
     inkscape:cy="130.72267"
     inkscape:window-x="81"
     inkscape:window-y="30"
     inkscape:window-maximized="1"
     inkscape:current-layer="Layer_2" /><circle
     cx="118.99999"
     cy="121.00001"
     id="circle3"
     style="fill:#232323"
     r="110.00001" /><line
     stroke-miterlimit="10"
     x1="118.99999"
     y1="223.55212"
     x2="118.99999"
     y2="207.54268"
     id="line5"
     style="fill:none;stroke:#ffffff;stroke-width:1.36645973;stroke-miterlimit:10" /><line
     stroke-miterlimit="10"
     x1="127.93871"
     y1="223.162"
     x2="126.98698"
     y2="212.28568"
     id="line7"
     style="fill:none;stroke:#ffffff;stroke-width:1.36645973;stroke-miterlimit:10" /><line
     stroke-miterlimit="10"
     x1="145.54282"
     y1="220.05807"
     x2="142.71698"
     y2="209.51242"
     id="line9"
     style="fill:none;stroke:#ffffff;stroke-width:1.36645973;stroke-miterlimit:10" /><line
     stroke-miterlimit="10"
     x1="162.3407"
     y1="213.94386"
     x2="157.72685"
     y2="204.04932"
     id="line11"
     style="fill:none;stroke:#ffffff;stroke-width:1.36645973;stroke-miterlimit:10" /><line
     stroke-miterlimit="10"
     x1="177.82201"
     y1="205.00652"
     x2="171.55951"
     y2="196.06305"
     id="line13"
     style="fill:none;stroke:#ffffff;stroke-width:1.36645973;stroke-miterlimit:10" /><line
     stroke-miterlimit="10"
     x1="191.51598"
     y1="193.51598"
     x2="183.79549"
     y2="185.79547"
     id="line15"
     style="fill:none;stroke:#ffffff;stroke-width:1.36645973;stroke-miterlimit:10" /><line
     stroke-miterlimit="10"
     x1="203.00722"
     y1="179.82199"
     x2="194.06306"
     y2="173.56018"
     id="line17"
     style="fill:none;stroke:#ffffff;stroke-width:1.36645973;stroke-miterlimit:10" /><line
     stroke-miterlimit="10"
     x1="211.94522"
     y1="164.34137"
     x2="202.04933"
     y2="159.72752"
     id="line19"
     style="fill:none;stroke:#ffffff;stroke-width:1.36645973;stroke-miterlimit:10" /><line
     stroke-miterlimit="10"
     x1="218.05948"
     y1="147.54349"
     x2="207.51244"
     y2="144.71765"
     id="line21"
     style="fill:none;stroke:#ffffff;stroke-width:1.36645973;stroke-miterlimit:10" /><line
     stroke-miterlimit="10"
     x1="221.16406"
     y1="129.93869"
     x2="210.28633"
     y2="128.98764"
     id="line23"
     style="fill:none;stroke:#ffffff;stroke-width:1.36645973;stroke-miterlimit:10" /><line
     stroke-miterlimit="10"
     x1="221.16406"
     y1="112.062"
     x2="210.28703"
     y2="113.0151"
     id="line25"
     style="fill:none;stroke:#ffffff;stroke-width:1.36645973;stroke-miterlimit:10" /><line
     stroke-miterlimit="10"
     x1="218.06015"
     y1="94.457214"
     x2="207.51381"
     y2="97.284416"
     id="line27"
     style="fill:none;stroke:#ffffff;stroke-width:1.36645973;stroke-miterlimit:10" /><line
     stroke-miterlimit="10"
     x1="211.94659"
     y1="77.659325"
     x2="202.05139"
     y2="82.274551"
     id="line29"
     style="fill:none;stroke:#ffffff;stroke-width:1.36645973;stroke-miterlimit:10" /><line
     stroke-miterlimit="10"
     x1="203.00859"
     y1="62.178017"
     x2="194.0658"
     y2="68.441185"
     id="line31"
     style="fill:none;stroke:#ffffff;stroke-width:1.36645973;stroke-miterlimit:10" /><line
     stroke-miterlimit="10"
     x1="191.51735"
     y1="48.484043"
     x2="183.79822"
     y2="56.204544"
     id="line33"
     style="fill:none;stroke:#ffffff;stroke-width:1.36645973;stroke-miterlimit:10" /><line
     stroke-miterlimit="10"
     x1="177.82336"
     y1="36.993481"
     x2="171.56226"
     y2="45.936962"
     id="line35"
     style="fill:none;stroke:#ffffff;stroke-width:1.36645973;stroke-miterlimit:10" /><line
     stroke-miterlimit="10"
     x1="162.34276"
     y1="28.054789"
     x2="157.72958"
     y2="37.950687"
     id="line37"
     style="fill:none;stroke:#ffffff;stroke-width:1.36645973;stroke-miterlimit:10" /><line
     stroke-miterlimit="10"
     x1="145.54486"
     y1="21.940569"
     x2="142.7197"
     y2="32.486897"
     id="line39"
     style="fill:none;stroke:#ffffff;stroke-width:1.36645973;stroke-miterlimit:10" /><line
     stroke-miterlimit="10"
     x1="127.94007"
     y1="18.835968"
     x2="126.9897"
     y2="29.712984"
     id="line41"
     style="fill:none;stroke:#ffffff;stroke-width:1.36645973;stroke-miterlimit:10" /><line
     stroke-miterlimit="10"
     x1="110.06405"
     y1="18.835968"
     x2="111.01648"
     y2="29.712301"
     id="line43"
     style="fill:none;stroke:#ffffff;stroke-width:1.36645973;stroke-miterlimit:10" /><line
     stroke-miterlimit="10"
     x1="92.459953"
     y1="21.939886"
     x2="95.286469"
     y2="32.485531"
     id="line45"
     style="fill:none;stroke:#ffffff;stroke-width:1.36645973;stroke-miterlimit:10" /><line
     stroke-miterlimit="10"
     x1="75.661385"
     y1="28.053419"
     x2="80.276596"
     y2="37.948639"
     id="line47"
     style="fill:none;stroke:#ffffff;stroke-width:1.36645973;stroke-miterlimit:10" /><line
     stroke-miterlimit="10"
     x1="60.180073"
     y1="36.991436"
     x2="66.443237"
     y2="45.934227"
     id="line49"
     style="fill:none;stroke:#ffffff;stroke-width:1.36645973;stroke-miterlimit:10" /><line
     stroke-miterlimit="10"
     x1="46.486095"
     y1="48.481995"
     x2="54.206596"
     y2="56.201805"
     id="line51"
     style="fill:none;stroke:#ffffff;stroke-width:1.36645973;stroke-miterlimit:10" /><line
     stroke-miterlimit="10"
     x1="34.99485"
     y1="62.175972"
     x2="43.938332"
     y2="68.437088"
     id="line53"
     style="fill:none;stroke:#ffffff;stroke-width:1.36645973;stroke-miterlimit:10" /><line
     stroke-miterlimit="10"
     x1="26.056837"
     y1="77.657272"
     x2="35.952061"
     y2="82.270447"
     id="line55"
     style="fill:none;stroke:#ffffff;stroke-width:1.36645973;stroke-miterlimit:10" /><line
     stroke-miterlimit="10"
     x1="19.942616"
     y1="94.45517"
     x2="30.488953"
     y2="97.280319"
     id="line57"
     style="fill:none;stroke:#ffffff;stroke-width:1.36645973;stroke-miterlimit:10" /><line
     stroke-miterlimit="10"
     x1="16.838018"
     y1="112.05994"
     x2="27.714354"
     y2="113.01031"
     id="line59"
     style="fill:none;stroke:#ffffff;stroke-width:1.36645973;stroke-miterlimit:10" /><line
     stroke-miterlimit="10"
     x1="16.837337"
     y1="129.93596"
     x2="27.713671"
     y2="128.98355"
     id="line61"
     style="fill:none;stroke:#ffffff;stroke-width:1.36645973;stroke-miterlimit:10" /><line
     stroke-miterlimit="10"
     x1="19.941248"
     y1="147.54005"
     x2="30.487583"
     y2="144.71423"
     id="line63"
     style="fill:none;stroke:#ffffff;stroke-width:1.36645973;stroke-miterlimit:10" /><line
     stroke-miterlimit="10"
     x1="26.05479"
     y1="164.33865"
     x2="35.950012"
     y2="159.72412"
     id="line65"
     style="fill:none;stroke:#ffffff;stroke-width:1.36645973;stroke-miterlimit:10" /><line
     stroke-miterlimit="10"
     x1="34.992123"
     y1="179.81995"
     x2="43.935604"
     y2="173.55745"
     id="line67"
     style="fill:none;stroke:#ffffff;stroke-width:1.36645973;stroke-miterlimit:10" /><line
     stroke-miterlimit="10"
     x1="46.482685"
     y1="193.51462"
     x2="54.203182"
     y2="185.79344"
     id="line69"
     style="fill:none;stroke:#ffffff;stroke-width:1.36645973;stroke-miterlimit:10" /><line
     stroke-miterlimit="10"
     x1="60.176659"
     y1="205.00586"
     x2="66.438469"
     y2="196.06169"
     id="line71"
     style="fill:none;stroke:#ffffff;stroke-width:1.36645973;stroke-miterlimit:10" /><line
     stroke-miterlimit="10"
     x1="75.657288"
     y1="213.94453"
     x2="80.271133"
     y2="204.04865"
     id="line73"
     style="fill:none;stroke:#ffffff;stroke-width:1.36645973;stroke-miterlimit:10" /><line
     stroke-miterlimit="10"
     x1="92.45517"
     y1="220.05876"
     x2="95.281013"
     y2="209.51176"
     id="line75"
     style="fill:none;stroke:#ffffff;stroke-width:1.36645973;stroke-miterlimit:10" /><line
     stroke-miterlimit="10"
     x1="110.05996"
     y1="223.16336"
     x2="111.01102"
     y2="212.28635"
     id="line77"
     style="fill:none;stroke:#ffffff;stroke-width:1.36645973;stroke-miterlimit:10" /><line
     stroke-miterlimit="10"
     x1="136.8084"
     y1="221.99437"
     x2="134.02902"
     y2="206.22746"
     id="line79"
     style="fill:none;stroke:#ffffff;stroke-width:1.36645973;stroke-miterlimit:10" /><line
     stroke-miterlimit="10"
     x1="154.07498"
     y1="217.36752"
     x2="148.60027"
     y2="202.3235"
     id="line81"
     style="fill:none;stroke:#ffffff;stroke-width:1.36645973;stroke-miterlimit:10" /><line
     stroke-miterlimit="10"
     x1="170.2764"
     y1="209.81305"
     x2="162.27168"
     y2="195.94827"
     id="line83"
     style="fill:none;stroke:#ffffff;stroke-width:1.36645973;stroke-miterlimit:10" /><line
     stroke-miterlimit="10"
     x1="184.92009"
     y1="199.55983"
     x2="174.62927"
     y2="187.29584"
     id="line85"
     style="fill:none;stroke:#ffffff;stroke-width:1.36645973;stroke-miterlimit:10" /><line
     stroke-miterlimit="10"
     x1="197.5605"
     y1="186.92007"
     x2="185.29654"
     y2="176.62859"
     id="line87"
     style="fill:none;stroke:#ffffff;stroke-width:1.36645973;stroke-miterlimit:10" /><line
     stroke-miterlimit="10"
     x1="207.81375"
     y1="172.27641"
     x2="193.94897"
     y2="164.271"
     id="line89"
     style="fill:none;stroke:#ffffff;stroke-width:1.36645973;stroke-miterlimit:10" /><line
     stroke-miterlimit="10"
     x1="215.36823"
     y1="156.07498"
     x2="200.32486"
     y2="150.59956"
     id="line91"
     style="fill:none;stroke:#ffffff;stroke-width:1.36645973;stroke-miterlimit:10" /><line
     stroke-miterlimit="10"
     x1="219.99507"
     y1="138.8084"
     x2="204.22952"
     y2="136.02834"
     id="line93"
     style="fill:none;stroke:#ffffff;stroke-width:1.36645973;stroke-miterlimit:10" /><line
     stroke-miterlimit="10"
     x1="221.55283"
     y1="121.00001"
     x2="205.54337"
     y2="121.00001"
     id="line95"
     style="fill:none;stroke:#ffffff;stroke-width:1.36645973;stroke-miterlimit:10" /><line
     stroke-miterlimit="10"
     x1="219.99507"
     y1="103.19231"
     x2="204.22952"
     y2="105.97169"
     id="line97"
     style="fill:none;stroke:#ffffff;stroke-width:1.36645973;stroke-miterlimit:10" /><line
     stroke-miterlimit="10"
     x1="215.36823"
     y1="85.925728"
     x2="200.32486"
     y2="91.400444"
     id="line99"
     style="fill:none;stroke:#ffffff;stroke-width:1.36645973;stroke-miterlimit:10" /><line
     stroke-miterlimit="10"
     x1="207.81375"
     y1="69.724289"
     x2="193.94965"
     y2="77.729019"
     id="line101"
     style="fill:none;stroke:#ffffff;stroke-width:1.36645973;stroke-miterlimit:10" /><line
     stroke-miterlimit="10"
     x1="197.5605"
     y1="55.081306"
     x2="185.29724"
     y2="65.371437"
     id="line103"
     style="fill:none;stroke:#ffffff;stroke-width:1.36645973;stroke-miterlimit:10" /><line
     stroke-miterlimit="10"
     x1="184.92009"
     y1="42.440876"
     x2="174.62996"
     y2="54.70417"
     id="line105"
     style="fill:none;stroke:#ffffff;stroke-width:1.36645973;stroke-miterlimit:10" /><line
     stroke-miterlimit="10"
     x1="170.27708"
     y1="32.187645"
     x2="162.27237"
     y2="46.051746"
     id="line107"
     style="fill:none;stroke:#ffffff;stroke-width:1.36645973;stroke-miterlimit:10" /><line
     stroke-miterlimit="10"
     x1="154.07634"
     y1="24.633169"
     x2="148.60095"
     y2="39.675846"
     id="line109"
     style="fill:none;stroke:#ffffff;stroke-width:1.36645973;stroke-miterlimit:10" /><line
     stroke-miterlimit="10"
     x1="136.80977"
     y1="20.006332"
     x2="134.02969"
     y2="35.771183"
     id="line111"
     style="fill:none;stroke:#ffffff;stroke-width:1.36645973;stroke-miterlimit:10" /><line
     stroke-miterlimit="10"
     x1="119.00138"
     y1="18.447897"
     x2="119.0007"
     y2="34.456654"
     id="line113"
     style="fill:none;stroke:#ffffff;stroke-width:1.36645973;stroke-miterlimit:10" /><line
     stroke-miterlimit="10"
     x1="101.19368"
     y1="20.00565"
     x2="103.97306"
     y2="35.771183"
     id="line115"
     style="fill:none;stroke:#ffffff;stroke-width:1.36645973;stroke-miterlimit:10" /><line
     stroke-miterlimit="10"
     x1="83.927086"
     y1="24.63249"
     x2="89.401802"
     y2="39.675846"
     id="line117"
     style="fill:none;stroke:#ffffff;stroke-width:1.36645973;stroke-miterlimit:10" /><line
     stroke-miterlimit="10"
     x1="67.725662"
     y1="32.186962"
     x2="75.729713"
     y2="46.051064"
     id="line119"
     style="fill:none;stroke:#ffffff;stroke-width:1.36645973;stroke-miterlimit:10" /><line
     stroke-miterlimit="10"
     x1="53.081997"
     y1="42.440193"
     x2="63.37281"
     y2="54.703484"
     id="line121"
     style="fill:none;stroke:#ffffff;stroke-width:1.36645973;stroke-miterlimit:10" /><line
     stroke-miterlimit="10"
     x1="40.441563"
     y1="55.079941"
     x2="52.705536"
     y2="65.370758"
     id="line123"
     style="fill:none;stroke:#ffffff;stroke-width:1.36645973;stroke-miterlimit:10" /><line
     stroke-miterlimit="10"
     x1="30.18833"
     y1="69.722923"
     x2="44.053116"
     y2="77.727646"
     id="line125"
     style="fill:none;stroke:#ffffff;stroke-width:1.36645973;stroke-miterlimit:10" /><line
     stroke-miterlimit="10"
     x1="22.633858"
     y1="85.924362"
     x2="37.677895"
     y2="91.399757"
     id="line127"
     style="fill:none;stroke:#ffffff;stroke-width:1.36645973;stroke-miterlimit:10" /><line
     stroke-miterlimit="10"
     x1="18.006346"
     y1="103.19093"
     x2="33.773247"
     y2="105.97031"
     id="line129"
     style="fill:none;stroke:#ffffff;stroke-width:1.36645973;stroke-miterlimit:10" /><line
     stroke-miterlimit="10"
     x1="16.44858"
     y1="120.99932"
     x2="32.458023"
     y2="120.99865"
     id="line131"
     style="fill:none;stroke:#ffffff;stroke-width:1.36645973;stroke-miterlimit:10" /><line
     stroke-miterlimit="10"
     x1="18.006346"
     y1="138.80702"
     x2="33.772556"
     y2="136.02628"
     id="line133"
     style="fill:none;stroke:#ffffff;stroke-width:1.36645973;stroke-miterlimit:10" /><line
     stroke-miterlimit="10"
     x1="22.633173"
     y1="156.07362"
     x2="37.677216"
     y2="150.59753"
     id="line135"
     style="fill:none;stroke:#ffffff;stroke-width:1.36645973;stroke-miterlimit:10" /><line
     stroke-miterlimit="10"
     x1="30.186966"
     y1="172.27505"
     x2="44.052433"
     y2="164.26962"
     id="line137"
     style="fill:none;stroke:#ffffff;stroke-width:1.36645973;stroke-miterlimit:10" /><line
     stroke-miterlimit="10"
     x1="40.440197"
     y1="186.91869"
     x2="52.704857"
     y2="176.62653"
     id="line139"
     style="fill:none;stroke:#ffffff;stroke-width:1.36645973;stroke-miterlimit:10" /><line
     stroke-miterlimit="10"
     x1="53.080631"
     y1="199.55914"
     x2="63.372124"
     y2="187.29381"
     id="line141"
     style="fill:none;stroke:#ffffff;stroke-width:1.36645973;stroke-miterlimit:10" /><line
     stroke-miterlimit="10"
     x1="67.724304"
     y1="209.81238"
     x2="75.729012"
     y2="195.94691"
     id="line143"
     style="fill:none;stroke:#ffffff;stroke-width:1.36645973;stroke-miterlimit:10" /><line
     stroke-miterlimit="10"
     x1="83.925713"
     y1="217.36752"
     x2="89.400436"
     y2="202.32213"
     id="line145"
     style="fill:none;stroke:#ffffff;stroke-width:1.36645973;stroke-miterlimit:10" /><line
     stroke-miterlimit="10"
     x1="101.19231"
     y1="221.99437"
     x2="103.97169"
     y2="206.22678"
     id="line147"
     style="fill:none;stroke:#ffffff;stroke-width:1.36645973;stroke-miterlimit:10" /><g
     id="g149"
     transform="matrix(0.68322985,0,0,0.68322985,-17.873473,-15.645965)"><path
       stroke-miterlimit="10"
       d="m 192.637,101.333 0,-21.547 0.469,0 14.341,16.518 0,-16.518 2.124,0 0,21.548 -0.483,0 -14.224,-16.316 0,16.316 -2.227,0 z"
       id="path151"
       inkscape:connector-curvature="0"
       style="fill:#ffffff;stroke:#ffffff;stroke-miterlimit:10" /></g><g
     id="g153"
     transform="matrix(0.68322985,0,0,0.68322985,-17.873473,-15.645965)"><path
       stroke-miterlimit="10"
       d="m 135.018,109.119 -1.585,0.916 c -0.452,-1.449 -0.468,-2.755 -0.05,-3.919 0.419,-1.162 1.186,-2.064 2.299,-2.708 0.811,-0.468 1.674,-0.719 2.588,-0.754 0.915,-0.035 1.746,0.15 2.492,0.556 0.746,0.406 1.316,0.95 1.711,1.634 0.773,1.339 0.72,2.784 -0.161,4.336 0.923,-0.128 1.792,-0.038 2.608,0.27 1.153,0.434 2.024,1.162 2.614,2.184 0.509,0.882 0.762,1.856 0.759,2.925 -0.004,1.068 -0.281,2.053 -0.832,2.954 -0.552,0.9 -1.324,1.638 -2.317,2.211 -1.34,0.773 -2.68,1.032 -4.02,0.778 -1.341,-0.256 -2.579,-1.051 -3.718,-2.387 l 1.522,-0.879 c 0.851,0.854 1.655,1.362 2.416,1.523 0.971,0.201 1.953,0.014 2.946,-0.56 1.128,-0.651 1.838,-1.512 2.131,-2.584 0.293,-1.07 0.178,-2.061 -0.347,-2.97 -0.351,-0.606 -0.849,-1.075 -1.496,-1.406 -0.647,-0.331 -1.335,-0.465 -2.063,-0.401 -0.729,0.064 -1.715,0.412 -2.957,1.044 l -0.823,-1.427 c 0.712,-0.411 1.287,-0.91 1.729,-1.498 0.44,-0.588 0.681,-1.152 0.721,-1.692 0.041,-0.54 -0.07,-1.039 -0.335,-1.498 -0.391,-0.676 -0.998,-1.105 -1.822,-1.288 -0.824,-0.182 -1.648,-0.034 -2.473,0.441 -0.67,0.387 -1.139,0.909 -1.408,1.566 -0.268,0.658 -0.311,1.535 -0.129,2.633 z"
       id="path155"
       inkscape:connector-curvature="0"
       style="fill:#ffffff;stroke:#ffffff;stroke-miterlimit:10" /><path
       stroke-miterlimit="10"
       d="m 147.018,102.192 -1.586,0.915 c -0.452,-1.449 -0.469,-2.755 -0.05,-3.918 0.419,-1.163 1.185,-2.065 2.298,-2.708 0.811,-0.468 1.674,-0.719 2.588,-0.754 0.916,-0.034 1.746,0.151 2.492,0.556 0.747,0.406 1.317,0.95 1.712,1.633 0.773,1.34 0.72,2.785 -0.161,4.336 0.922,-0.128 1.791,-0.038 2.608,0.27 1.153,0.434 2.024,1.162 2.614,2.184 0.509,0.881 0.762,1.856 0.758,2.924 -0.003,1.068 -0.28,2.053 -0.832,2.954 -0.551,0.9 -1.323,1.638 -2.317,2.212 -1.339,0.773 -2.679,1.032 -4.019,0.777 -1.342,-0.256 -2.58,-1.05 -3.718,-2.386 l 1.522,-0.879 c 0.85,0.854 1.654,1.362 2.416,1.523 0.971,0.201 1.953,0.015 2.947,-0.56 1.127,-0.65 1.838,-1.512 2.131,-2.583 0.292,-1.071 0.177,-2.061 -0.349,-2.97 -0.35,-0.606 -0.849,-1.075 -1.495,-1.406 -0.646,-0.331 -1.335,-0.465 -2.064,-0.401 -0.729,0.064 -1.714,0.412 -2.955,1.044 l -0.824,-1.427 c 0.711,-0.411 1.287,-0.91 1.729,-1.498 0.439,-0.588 0.681,-1.152 0.721,-1.692 0.041,-0.54 -0.071,-1.039 -0.336,-1.498 -0.391,-0.676 -0.998,-1.105 -1.821,-1.288 -0.824,-0.182 -1.648,-0.035 -2.474,0.441 -0.669,0.387 -1.138,0.909 -1.406,1.566 -0.27,0.657 -0.313,1.535 -0.129,2.633 z"
       id="path157"
       inkscape:connector-curvature="0"
       style="fill:#ffffff;stroke:#ffffff;stroke-miterlimit:10" /></g><g
     id="g159"
     transform="matrix(0.68322985,0,0,0.68322985,-17.873473,-15.645965)"><path
       stroke-miterlimit="10"
       d="m 98.427,152.854 -0.915,1.585 c -1.116,-1.029 -1.783,-2.152 -2.003,-3.369 -0.218,-1.216 -0.006,-2.381 0.637,-3.495 0.468,-0.81 1.09,-1.459 1.864,-1.947 0.775,-0.487 1.587,-0.742 2.436,-0.764 0.85,-0.022 1.615,0.165 2.299,0.559 1.34,0.773 2.016,2.052 2.029,3.835 0.734,-0.572 1.532,-0.928 2.394,-1.07 1.215,-0.2 2.334,-0.006 3.355,0.584 0.882,0.509 1.588,1.227 2.119,2.154 0.531,0.927 0.783,1.918 0.757,2.974 -0.027,1.056 -0.328,2.08 -0.901,3.074 -0.773,1.339 -1.805,2.233 -3.092,2.683 -1.29,0.45 -2.76,0.38 -4.413,-0.208 l 0.879,-1.522 c 1.163,0.314 2.114,0.352 2.854,0.111 0.941,-0.312 1.699,-0.965 2.273,-1.958 0.65,-1.127 0.835,-2.229 0.553,-3.303 -0.281,-1.074 -0.877,-1.875 -1.786,-2.399 -0.606,-0.35 -1.272,-0.507 -1.998,-0.47 -0.726,0.037 -1.388,0.265 -1.988,0.685 -0.599,0.42 -1.278,1.214 -2.038,2.382 l -1.427,-0.824 c 0.411,-0.712 0.66,-1.433 0.748,-2.162 0.087,-0.729 0.014,-1.338 -0.222,-1.826 -0.234,-0.488 -0.581,-0.864 -1.04,-1.129 -0.676,-0.391 -1.417,-0.458 -2.222,-0.205 -0.805,0.255 -1.444,0.794 -1.921,1.619 -0.387,0.67 -0.531,1.356 -0.436,2.06 0.097,0.706 0.498,1.488 1.205,2.346 z"
       id="path161"
       inkscape:connector-curvature="0"
       style="fill:#ffffff;stroke:#ffffff;stroke-miterlimit:10" /><path
       stroke-miterlimit="10"
       d="m 108.273,145.444 c -2.051,-1.184 -3.509,-2.319 -4.376,-3.407 -0.866,-1.087 -1.355,-2.199 -1.471,-3.336 -0.113,-1.137 0.116,-2.203 0.69,-3.196 0.581,-1.008 1.399,-1.752 2.452,-2.235 1.054,-0.481 2.299,-0.625 3.736,-0.429 1.438,0.196 3.137,0.859 5.096,1.991 1.952,1.127 3.371,2.259 4.256,3.395 0.886,1.136 1.385,2.286 1.497,3.451 0.112,1.165 -0.122,2.25 -0.704,3.258 -0.574,0.993 -1.377,1.724 -2.407,2.19 -1.03,0.467 -2.24,0.598 -3.63,0.392 -1.39,-0.206 -3.102,-0.898 -5.139,-2.074 z m 0.875,-1.454 c 1.757,1.014 3.175,1.624 4.255,1.83 1.08,0.205 2.03,0.136 2.85,-0.209 0.82,-0.344 1.427,-0.858 1.821,-1.542 0.398,-0.691 0.544,-1.467 0.435,-2.329 -0.108,-0.861 -0.529,-1.71 -1.26,-2.546 -0.884,-1.027 -2.104,-1.99 -3.663,-2.89 -1.566,-0.904 -2.948,-1.471 -4.146,-1.703 -1.197,-0.23 -2.203,-0.175 -3.017,0.168 -0.814,0.342 -1.417,0.852 -1.808,1.529 -0.398,0.691 -0.542,1.473 -0.43,2.345 0.112,0.874 0.526,1.728 1.243,2.564 0.717,0.837 1.957,1.765 3.72,2.783 z"
       id="path163"
       inkscape:connector-curvature="0"
       style="fill:#ffffff;stroke:#ffffff;stroke-miterlimit:10" /></g><g
     id="g165"
     transform="matrix(0.68322985,0,0,0.68322985,-17.873473,-15.645965)"><path
       stroke-miterlimit="10"
       d="m 109.917,264.448 0.86,1.49 c -1.558,0.843 -3.112,1.057 -4.665,0.643 -1.552,-0.414 -2.745,-1.344 -3.579,-2.789 -0.826,-1.431 -1.033,-2.855 -0.619,-4.272 0.412,-1.418 1.246,-2.489 2.501,-3.214 0.882,-0.509 1.83,-0.775 2.846,-0.799 1.016,-0.025 2.534,0.191 4.554,0.646 l 6.408,1.466 -4.143,-7.175 1.502,-0.866 6.097,10.561 -9.851,-2.234 c -1.987,-0.459 -3.397,-0.69 -4.23,-0.693 -0.834,-0.002 -1.597,0.196 -2.288,0.596 -0.874,0.504 -1.439,1.265 -1.694,2.281 -0.255,1.016 -0.109,1.997 0.436,2.941 0.574,0.993 1.383,1.628 2.425,1.905 1.043,0.274 2.19,0.112 3.44,-0.487 z"
       id="path167"
       inkscape:connector-curvature="0"
       style="fill:#ffffff;stroke:#ffffff;stroke-miterlimit:10" /><path
       stroke-miterlimit="10"
       d="m 93.859,248.767 -0.182,-0.315 10.846,-6.262 -1.086,-1.882 1.48,-0.854 1.086,1.882 3.616,-2.087 0.891,1.543 -3.616,2.088 4.297,7.441 -17.332,-1.554 z m 11.556,-5.034 -6.531,3.771 9.191,0.836 -2.66,-4.607 z"
       id="path169"
       inkscape:connector-curvature="0"
       style="fill:#ffffff;stroke:#ffffff;stroke-miterlimit:10" /></g><g
     id="g171"
     transform="matrix(0.68322985,0,0,0.68322985,-17.873473,-15.645965)"><path
       stroke-miterlimit="10"
       d="m 153.804,300.688 1.491,0.86 c -0.928,1.509 -2.167,2.472 -3.72,2.889 -1.551,0.417 -3.049,0.208 -4.494,-0.626 -1.431,-0.826 -2.322,-1.955 -2.673,-3.391 -0.352,-1.434 -0.165,-2.778 0.56,-4.033 0.509,-0.882 1.198,-1.586 2.065,-2.115 0.867,-0.529 2.29,-1.102 4.267,-1.718 l 6.282,-1.935 -7.174,-4.142 0.867,-1.502 10.561,6.098 -9.648,2.991 c -1.951,0.595 -3.288,1.1 -4.011,1.514 -0.723,0.415 -1.284,0.969 -1.683,1.66 -0.505,0.873 -0.614,1.815 -0.326,2.823 0.287,1.007 0.903,1.784 1.847,2.329 0.994,0.573 2.012,0.719 3.053,0.438 1.041,-0.282 1.953,-0.995 2.736,-2.14 z"
       id="path173"
       inkscape:connector-curvature="0"
       style="fill:#ffffff;stroke:#ffffff;stroke-miterlimit:10" /><path
       stroke-miterlimit="10"
       d="m 137.497,297.756 -3.055,-1.764 8.978,-15.551 1.543,0.891 -8.1,14.029 2.442,1.409 -1.808,0.986 z"
       id="path175"
       inkscape:connector-curvature="0"
       style="fill:#ffffff;stroke:#ffffff;stroke-miterlimit:10" /></g><g
     id="g177"
     transform="matrix(0.68322985,0,0,0.68322985,-17.873473,-15.645965)"><path
       stroke-miterlimit="10"
       d="m 265.364,296.643 -3.056,1.764 -8.979,-15.551 1.544,-0.892 8.099,14.029 2.442,-1.41 -0.05,2.06 z"
       id="path179"
       inkscape:connector-curvature="0"
       style="fill:#ffffff;stroke:#ffffff;stroke-miterlimit:10" /><path
       stroke-miterlimit="10"
       d="m 248.674,306.278 -0.854,-1.479 5.525,-3.19 -1.67,-4.689 c -0.562,0.588 -1.112,1.038 -1.655,1.352 -1.415,0.817 -2.855,1.017 -4.321,0.6 -1.466,-0.418 -2.627,-1.366 -3.481,-2.847 -0.59,-1.021 -0.895,-2.096 -0.915,-3.221 -0.021,-1.126 0.242,-2.148 0.787,-3.069 0.544,-0.921 1.345,-1.686 2.402,-2.296 1.262,-0.729 2.548,-0.957 3.86,-0.686 1.313,0.272 2.408,0.971 3.285,2.1 l -1.597,0.922 c -0.466,-0.53 -0.949,-0.899 -1.45,-1.108 -0.501,-0.209 -1.055,-0.291 -1.664,-0.245 -0.607,0.046 -1.172,0.219 -1.693,0.52 -1.021,0.59 -1.676,1.484 -1.963,2.681 -0.285,1.198 -0.093,2.376 0.578,3.538 0.604,1.048 1.428,1.709 2.468,1.981 1.041,0.272 2.114,0.089 3.221,-0.55 0.916,-0.529 1.865,-1.449 2.848,-2.758 l 3.024,8.558 -6.735,3.886 z"
       id="path181"
       inkscape:connector-curvature="0"
       style="fill:#ffffff;stroke:#ffffff;stroke-miterlimit:10" /></g><g
     id="g183"
     transform="matrix(0.68322985,0,0,0.68322985,-17.873473,-15.645965)"><path
       stroke-miterlimit="10"
       d="m 305.018,250.334 -1.765,3.056 -15.551,-8.979 0.892,-1.543 14.028,8.099 1.41,-2.442 0.986,1.809 z"
       id="path185"
       inkscape:connector-curvature="0"
       style="fill:#ffffff;stroke:#ffffff;stroke-miterlimit:10" /><path
       stroke-miterlimit="10"
       d="m 295.219,256.076 0.86,-1.49 c 1.509,0.928 2.472,2.167 2.889,3.719 0.417,1.551 0.209,3.05 -0.626,4.495 -0.825,1.431 -1.955,2.322 -3.391,2.672 -1.434,0.352 -2.778,0.165 -4.033,-0.56 -0.881,-0.509 -1.586,-1.197 -2.115,-2.064 -0.528,-0.868 -1.102,-2.29 -1.718,-4.267 l -1.935,-6.282 -4.142,7.174 -1.501,-0.867 6.097,-10.561 2.991,9.648 c 0.595,1.95 1.1,3.287 1.514,4.011 0.416,0.724 0.969,1.284 1.66,1.684 0.874,0.505 1.815,0.614 2.823,0.326 1.008,-0.287 1.784,-0.903 2.329,-1.848 0.574,-0.993 0.719,-2.012 0.438,-3.053 -0.281,-1.042 -0.995,-1.954 -2.14,-2.737 z"
       id="path187"
       inkscape:connector-curvature="0"
       style="fill:#ffffff;stroke:#ffffff;stroke-miterlimit:10" /></g><g
     id="g189"
     transform="matrix(0.68322985,0,0,0.68322985,-17.873473,-15.645965)"><path
       stroke-miterlimit="10"
       d="m 302.287,142.898 -0.097,1.762 -8.791,-0.532 c 0.516,0.455 0.916,0.929 1.201,1.423 0.713,1.235 0.873,2.541 0.479,3.917 -0.395,1.376 -1.244,2.44 -2.547,3.193 -0.896,0.517 -1.824,0.775 -2.787,0.776 -0.963,10e-4 -1.879,-0.259 -2.747,-0.778 -0.868,-0.519 -1.557,-1.22 -2.066,-2.102 -0.493,-0.854 -0.744,-1.765 -0.753,-2.733 -0.01,-0.968 0.239,-1.876 0.746,-2.724 0.507,-0.848 1.187,-1.518 2.039,-2.01 0.635,-0.366 1.376,-0.623 2.227,-0.77 0.85,-0.147 1.96,-0.174 3.33,-0.08 l 9.766,0.658 z m -9.264,3.072 c -0.522,-0.903 -1.286,-1.491 -2.292,-1.762 -1.007,-0.27 -1.964,-0.143 -2.874,0.383 -0.902,0.521 -1.488,1.284 -1.757,2.291 -0.269,1.008 -0.142,1.963 0.379,2.866 0.521,0.903 1.286,1.491 2.292,1.762 1.007,0.271 1.961,0.146 2.863,-0.376 0.909,-0.524 1.498,-1.291 1.767,-2.298 0.269,-1.007 0.144,-1.963 -0.378,-2.866 z"
       id="path191"
       inkscape:connector-curvature="0"
       style="fill:#ffffff;stroke:#ffffff;stroke-miterlimit:10" /></g><g
     id="g193"
     transform="matrix(0.68322985,0,0,0.68322985,-17.873473,-15.645965)"><path
       stroke-miterlimit="10"
       d="m 252.478,100.756 -1.585,-0.915 c 1.029,-1.116 2.152,-1.783 3.369,-2.003 1.216,-0.218 2.381,-0.006 3.495,0.637 0.81,0.468 1.459,1.09 1.947,1.864 0.487,0.775 0.742,1.587 0.764,2.436 0.022,0.85 -0.165,1.615 -0.559,2.299 -0.773,1.34 -2.052,2.016 -3.835,2.029 0.572,0.734 0.928,1.532 1.07,2.394 0.2,1.215 0.006,2.334 -0.584,3.355 -0.509,0.882 -1.227,1.588 -2.154,2.119 -0.927,0.531 -1.918,0.783 -2.974,0.757 -1.056,-0.027 -2.08,-0.328 -3.074,-0.901 -1.339,-0.773 -2.233,-1.805 -2.683,-3.092 -0.45,-1.29 -0.38,-2.76 0.208,-4.413 l 1.522,0.879 c -0.314,1.163 -0.352,2.114 -0.111,2.854 0.312,0.941 0.965,1.699 1.958,2.273 1.127,0.65 2.229,0.835 3.303,0.553 1.074,-0.281 1.875,-0.877 2.399,-1.786 0.35,-0.606 0.507,-1.272 0.47,-1.998 -0.037,-0.726 -0.265,-1.388 -0.685,-1.988 -0.42,-0.599 -1.214,-1.278 -2.382,-2.038 l 0.824,-1.427 c 0.712,0.411 1.433,0.66 2.162,0.748 0.729,0.087 1.338,0.014 1.826,-0.222 0.488,-0.234 0.864,-0.581 1.129,-1.04 0.391,-0.676 0.458,-1.417 0.205,-2.222 -0.255,-0.805 -0.794,-1.444 -1.619,-1.921 -0.67,-0.387 -1.356,-0.531 -2.06,-0.436 -0.706,0.096 -1.488,0.498 -2.346,1.205 z"
       id="path195"
       inkscape:connector-curvature="0"
       style="fill:#ffffff;stroke:#ffffff;stroke-miterlimit:10" /></g><g
     id="g197"
     transform="matrix(0.68322985,0,0,0.68322985,-17.873473,-15.645965)"><path
       stroke-miterlimit="10"
       d="m 80.119,212.927 0,-2.212 15.527,-4.402 -15.527,-6.177 0,-0.447 15.527,-6.105 -15.527,-4.477 0,-2.195 21.548,6.191 0,0.4 -16.304,6.394 16.304,6.519 0,0.402 -21.548,6.109 z"
       id="path199"
       inkscape:connector-curvature="0"
       style="fill:#ffffff;stroke:#ffffff;stroke-miterlimit:10" /></g><g
     id="g201"
     transform="matrix(0.68322985,0,0,0.68322985,-17.873473,-15.645965)"><path
       stroke-miterlimit="10"
       d="m 206.271,302.679 -1.831,1.099 c -1.289,-2.373 -2.778,-3.56 -4.468,-3.56 -0.723,0 -1.401,0.168 -2.036,0.505 -0.635,0.337 -1.118,0.789 -1.45,1.355 -0.332,0.566 -0.498,1.167 -0.498,1.802 0,0.723 0.244,1.431 0.732,2.124 0.674,0.957 1.904,2.109 3.691,3.457 1.797,1.357 2.915,2.339 3.354,2.944 0.762,1.016 1.143,2.114 1.143,3.296 0,0.938 -0.225,1.792 -0.674,2.563 -0.449,0.771 -1.082,1.379 -1.897,1.824 -0.815,0.445 -1.702,0.667 -2.659,0.667 -1.016,0 -1.965,-0.251 -2.849,-0.754 -0.884,-0.503 -1.819,-1.428 -2.805,-2.776 l 1.758,-1.333 c 0.811,1.074 1.501,1.782 2.073,2.124 0.572,0.342 1.194,0.513 1.868,0.513 0.869,0 1.58,-0.264 2.131,-0.791 0.551,-0.527 0.828,-1.177 0.828,-1.948 0,-0.469 -0.098,-0.923 -0.293,-1.362 -0.195,-0.439 -0.552,-0.918 -1.069,-1.436 -0.283,-0.273 -1.211,-0.991 -2.783,-2.153 -1.865,-1.377 -3.145,-2.603 -3.838,-3.677 -0.693,-1.074 -1.04,-2.153 -1.04,-3.237 0,-1.563 0.593,-2.92 1.78,-4.072 1.187,-1.152 2.629,-1.729 4.329,-1.729 1.309,0 2.495,0.349 3.56,1.047 1.065,0.698 2.045,1.868 2.943,3.508 z"
       id="path203"
       inkscape:connector-curvature="0"
       style="fill:#ffffff;stroke:#ffffff;stroke-miterlimit:10" /></g><g
     id="g205"
     transform="matrix(0.68322985,0,0,0.68322985,-17.873473,-15.645965)"><path
       stroke-miterlimit="10"
       d="m 320.547,193.303 0,12.349 -2.109,0 0,-10.195 -6.753,0 0,10.107 -2.109,0 0,-10.107 -8.467,0 0,10.107 -2.109,0 0,-12.261 21.547,0 z"
       id="path207"
       inkscape:connector-curvature="0"
       style="fill:#ffffff;stroke:#ffffff;stroke-miterlimit:10" /></g></svg>